<?xml version="1.0" encoding="UTF-8" standalone="no"?>
<svg
   xmlns:dc="http://purl.org/dc/elements/1.1/"
   xmlns:cc="http://creativecommons.org/ns#"
   xmlns:rdf="http://www.w3.org/1999/02/22-rdf-syntax-ns#"
   xmlns:svg="http://www.w3.org/2000/svg"
   xmlns="http://www.w3.org/2000/svg"
   xmlns:sodipodi="http://sodipodi.sourceforge.net/DTD/sodipodi-0.dtd"
   xmlns:inkscape="http://www.inkscape.org/namespaces/inkscape"
   sodipodi:docname="stickerNoBioc.svg"
   viewBox="0 0 155.7 182.5"
   height="182.5"
   width="155.7"
   xml:space="preserve"
   inkscape:version="1.0.2-2 (e86c870879, 2021-01-15)"
   version="1.1"
   id="svg2"><metadata
     id="metadata8"><rdf:RDF><cc:Work
         rdf:about=""><dc:format>image/svg+xml</dc:format><dc:type
           rdf:resource="http://purl.org/dc/dcmitype/StillImage" /><dc:title /></cc:Work></rdf:RDF></metadata><defs
     id="defs6"><inkscape:path-effect
       effect="bspline"
       id="path-effect2409"
       is_visible="true"
       lpeversion="1"
       weight="33.333333"
       steps="2"
       helper_size="0"
       apply_no_weight="true"
       apply_with_weight="true"
       only_selected="false" /><inkscape:path-effect
       effect="bspline"
       id="path-effect2372"
       is_visible="true"
       lpeversion="1"
       weight="33.333333"
       steps="2"
       helper_size="0"
       apply_no_weight="true"
       apply_with_weight="true"
       only_selected="false" /><inkscape:path-effect
       effect="bspline"
       id="path-effect2370"
       is_visible="true"
       lpeversion="1"
       weight="33.333333"
       steps="2"
       helper_size="0"
       apply_no_weight="true"
       apply_with_weight="true"
       only_selected="false" /><inkscape:path-effect
       effect="bspline"
       id="path-effect2368"
       is_visible="true"
       lpeversion="1"
       weight="33.333333"
       steps="2"
       helper_size="0"
       apply_no_weight="true"
       apply_with_weight="true"
       only_selected="false" /><inkscape:path-effect
       effect="bspline"
       id="path-effect2366"
       is_visible="true"
       lpeversion="1"
       weight="33.333333"
       steps="2"
       helper_size="0"
       apply_no_weight="true"
       apply_with_weight="true"
       only_selected="false" /><inkscape:path-effect
       effect="bspline"
       id="path-effect2364"
       is_visible="true"
       lpeversion="1"
       weight="33.333333"
       steps="2"
       helper_size="0"
       apply_no_weight="true"
       apply_with_weight="true"
       only_selected="false" /><inkscape:path-effect
       effect="bspline"
       id="path-effect2362"
       is_visible="true"
       lpeversion="1"
       weight="33.333333"
       steps="2"
       helper_size="0"
       apply_no_weight="true"
       apply_with_weight="true"
       only_selected="false" /><inkscape:path-effect
       effect="bspline"
       id="path-effect2300"
       is_visible="true"
       lpeversion="1"
       weight="33.333333"
       steps="2"
       helper_size="0"
       apply_no_weight="true"
       apply_with_weight="true"
       only_selected="false" /><inkscape:path-effect
       effect="bspline"
       id="path-effect2288"
       is_visible="true"
       lpeversion="1"
       weight="33.333333"
       steps="2"
       helper_size="0"
       apply_no_weight="true"
       apply_with_weight="true"
       only_selected="false" /><inkscape:path-effect
       effect="bspline"
       id="path-effect2257"
       is_visible="true"
       lpeversion="1"
       weight="33.333333"
       steps="2"
       helper_size="0"
       apply_no_weight="true"
       apply_with_weight="true"
       only_selected="false" /><inkscape:path-effect
       effect="bspline"
       id="path-effect2138"
       is_visible="true"
       lpeversion="1"
       weight="33.333333"
       steps="2"
       helper_size="0"
       apply_no_weight="true"
       apply_with_weight="true"
       only_selected="false" /><inkscape:path-effect
       effect="bspline"
       id="path-effect2134"
       is_visible="true"
       lpeversion="1"
       weight="33.333333"
       steps="2"
       helper_size="0"
       apply_no_weight="true"
       apply_with_weight="true"
       only_selected="false" /><inkscape:path-effect
       effect="bspline"
       id="path-effect2130"
       is_visible="true"
       lpeversion="1"
       weight="33.333333"
       steps="2"
       helper_size="0"
       apply_no_weight="true"
       apply_with_weight="true"
       only_selected="false" /><inkscape:path-effect
       effect="bspline"
       id="path-effect2126"
       is_visible="true"
       lpeversion="1"
       weight="33.333333"
       steps="2"
       helper_size="0"
       apply_no_weight="true"
       apply_with_weight="true"
       only_selected="false" /><inkscape:path-effect
       effect="bspline"
       id="path-effect2122"
       is_visible="true"
       lpeversion="1"
       weight="33.333333"
       steps="2"
       helper_size="0"
       apply_no_weight="true"
       apply_with_weight="true"
       only_selected="false" /><inkscape:path-effect
       effect="bspline"
       id="path-effect2118"
       is_visible="true"
       lpeversion="1"
       weight="33.333333"
       steps="2"
       helper_size="0"
       apply_no_weight="true"
       apply_with_weight="true"
       only_selected="false" /><inkscape:path-effect
       effect="bspline"
       id="path-effect2106"
       is_visible="true"
       lpeversion="1"
       weight="33.333333"
       steps="2"
       helper_size="0"
       apply_no_weight="true"
       apply_with_weight="true"
       only_selected="false" /><inkscape:path-effect
       effect="bspline"
       id="path-effect2104"
       is_visible="true"
       lpeversion="1"
       weight="33.333333"
       steps="2"
       helper_size="0"
       apply_no_weight="true"
       apply_with_weight="true"
       only_selected="false" /><inkscape:path-effect
       effect="bspline"
       id="path-effect2074"
       is_visible="true"
       lpeversion="1"
       weight="33.333333"
       steps="2"
       helper_size="0"
       apply_no_weight="true"
       apply_with_weight="true"
       only_selected="false" /><inkscape:path-effect
       effect="bspline"
       id="path-effect2072"
       is_visible="true"
       lpeversion="1"
       weight="33.333333"
       steps="2"
       helper_size="0"
       apply_no_weight="true"
       apply_with_weight="true"
       only_selected="false" /><inkscape:path-effect
       effect="bspline"
       id="path-effect2042"
       is_visible="true"
       lpeversion="1"
       weight="33.333333"
       steps="2"
       helper_size="0"
       apply_no_weight="true"
       apply_with_weight="true"
       only_selected="false" /><inkscape:path-effect
       effect="bspline"
       id="path-effect2040"
       is_visible="true"
       lpeversion="1"
       weight="33.333333"
       steps="2"
       helper_size="0"
       apply_no_weight="true"
       apply_with_weight="true"
       only_selected="false" /><inkscape:path-effect
       effect="bspline"
       id="path-effect2010"
       is_visible="true"
       lpeversion="1"
       weight="33.333333"
       steps="2"
       helper_size="0"
       apply_no_weight="true"
       apply_with_weight="true"
       only_selected="false" /><inkscape:path-effect
       effect="bspline"
       id="path-effect2008"
       is_visible="true"
       lpeversion="1"
       weight="33.333333"
       steps="2"
       helper_size="0"
       apply_no_weight="true"
       apply_with_weight="true"
       only_selected="false" /><inkscape:path-effect
       effect="bspline"
       id="path-effect1978"
       is_visible="true"
       lpeversion="1"
       weight="33.333333"
       steps="2"
       helper_size="0"
       apply_no_weight="true"
       apply_with_weight="true"
       only_selected="false" /><inkscape:path-effect
       effect="bspline"
       id="path-effect1976"
       is_visible="true"
       lpeversion="1"
       weight="33.333333"
       steps="2"
       helper_size="0"
       apply_no_weight="true"
       apply_with_weight="true"
       only_selected="false" /><inkscape:path-effect
       effect="bspline"
       id="path-effect1946"
       is_visible="true"
       lpeversion="1"
       weight="33.333333"
       steps="2"
       helper_size="0"
       apply_no_weight="true"
       apply_with_weight="true"
       only_selected="false" /><inkscape:path-effect
       effect="bspline"
       id="path-effect1944"
       is_visible="true"
       lpeversion="1"
       weight="33.333333"
       steps="2"
       helper_size="0"
       apply_no_weight="true"
       apply_with_weight="true"
       only_selected="false" /><inkscape:path-effect
       effect="bspline"
       id="path-effect1914"
       is_visible="true"
       lpeversion="1"
       weight="33.333333"
       steps="2"
       helper_size="0"
       apply_no_weight="true"
       apply_with_weight="true"
       only_selected="false" /><inkscape:path-effect
       effect="bspline"
       id="path-effect1912"
       is_visible="true"
       lpeversion="1"
       weight="33.333333"
       steps="2"
       helper_size="0"
       apply_no_weight="true"
       apply_with_weight="true"
       only_selected="false" /><inkscape:path-effect
       effect="bspline"
       id="path-effect1859"
       is_visible="true"
       lpeversion="1"
       weight="33.333333"
       steps="2"
       helper_size="0"
       apply_no_weight="true"
       apply_with_weight="true"
       only_selected="false" /><inkscape:path-effect
       effect="bspline"
       id="path-effect1836"
       is_visible="true"
       lpeversion="1"
       weight="33.333333"
       steps="2"
       helper_size="0"
       apply_no_weight="true"
       apply_with_weight="true"
       only_selected="false" /><inkscape:path-effect
       effect="bspline"
       id="path-effect1832"
       is_visible="true"
       lpeversion="1"
       weight="33.333333"
       steps="2"
       helper_size="0"
       apply_no_weight="true"
       apply_with_weight="true"
       only_selected="false" /><clipPath
       id="clipPath16"
       clipPathUnits="userSpaceOnUse"><path
         inkscape:connector-curvature="0"
         id="path18"
         d="m 2.422,38.688 0,68.945 59.858,34.478 59.859,-34.478 0,-68.945 L 62.28,4.211 2.422,38.688 Z" /></clipPath><radialGradient
       id="radialGradient24"
       spreadMethod="pad"
       gradientTransform="matrix(64.567177,0,0,-64.564835,65.073593,36.61673)"
       gradientUnits="userSpaceOnUse"
       r="1"
       cy="0"
       cx="0"
       fy="0"
       fx="0"><stop
         id="stop26"
         offset="0"
         style="stop-opacity:1;stop-color:#cf8484" /><stop
         id="stop28"
         offset="1"
         style="stop-opacity:1;stop-color:#b02626" /></radialGradient><clipPath
       id="clipPath44"
       clipPathUnits="userSpaceOnUse"><path
         inkscape:connector-curvature="0"
         id="path46"
         d="m 0,146 124.56,0 0,-146 L 0,0 0,146 Z" /></clipPath><clipPath
       id="clipPath196"
       clipPathUnits="userSpaceOnUse"><path
         inkscape:connector-curvature="0"
         id="path198"
         d="m 79.288,86.078 c -1.013,0 -1.843,-0.83 -1.843,-1.843 l 0,0 c 0,-1.015 0.83,-1.844 1.843,-1.844 l 0,0 10.058,0 c 1.013,0 1.843,0.829 1.843,1.844 l 0,0 c 0,1.013 -0.83,1.843 -1.843,1.843 l 0,0 -10.058,0 z m -15.365,0 c -1.014,0 -1.844,-0.83 -1.844,-1.843 l 0,0 c 0,-1.015 0.83,-1.844 1.844,-1.844 l 0,0 8.964,0 c 1.015,0 1.845,0.829 1.845,1.844 l 0,0 c 0,1.013 -0.83,1.843 -1.845,1.843 l 0,0 -8.964,0 z m -17.551,0 c -1.014,0 -1.843,-0.83 -1.843,-1.843 l 0,0 c 0,-1.015 0.829,-1.844 1.843,-1.844 l 0,0 10.058,0 c 1.013,0 1.843,0.829 1.843,1.844 l 0,0 c 0,1.013 -0.83,1.843 -1.843,1.843 l 0,0 -10.058,0 z m -11.081,0 c -1.014,0 -1.844,-0.83 -1.844,-1.843 l 0,0 c 0,-1.015 0.83,-1.844 1.844,-1.844 l 0,0 4.681,0 c 1.014,0 1.844,0.829 1.844,1.844 l 0,0 c 0,1.013 -0.83,1.843 -1.844,1.843 l 0,0 -4.681,0 z m 42.971,-6.399 c -0.45,0 -0.817,-0.368 -0.817,-0.817 l 0,0 c 0,-0.449 0.367,-0.818 0.817,-0.818 l 0,0 11.987,0 c 0.45,0 0.817,0.369 0.817,0.818 l 0,0 c 0,0.449 -0.367,0.817 -0.817,0.817 l 0,0 -11.987,0 z m -15.038,0 c -0.449,0 -0.817,-0.368 -0.817,-0.817 l 0,0 c 0,-0.449 0.368,-0.818 0.817,-0.818 l 0,0 10.581,0 c 0.449,0 0.817,0.369 0.817,0.818 l 0,0 c 0,0.449 -0.368,0.817 -0.817,0.817 l 0,0 -10.581,0 z m -12.654,0 c -0.449,0 -0.817,-0.368 -0.817,-0.817 l 0,0 c 0,-0.449 0.368,-0.818 0.817,-0.818 l 0,0 6.836,0 c 0.449,0 0.817,0.369 0.817,0.818 l 0,0 c 0,0.449 -0.368,0.817 -0.817,0.817 l 0,0 -6.836,0 z m -16.382,0 c -0.449,0 -0.817,-0.368 -0.817,-0.817 l 0,0 c 0,-0.449 0.368,-0.818 0.817,-0.818 l 0,0 6.836,0 c 0.449,0 0.817,0.369 0.817,0.818 l 0,0 c 0,0.449 -0.368,0.817 -0.817,0.817 l 0,0 -6.836,0 z m 44.074,-3.12 c -0.45,0 -0.817,-0.367 -0.817,-0.817 l 0,0 c 0,-0.449 0.367,-0.817 0.817,-0.817 l 0,0 11.987,0 c 0.45,0 0.817,0.368 0.817,0.817 l 0,0 c 0,0.45 -0.367,0.817 -0.817,0.817 l 0,0 -11.987,0 z m -15.038,0 c -0.449,0 -0.817,-0.367 -0.817,-0.817 l 0,0 c 0,-0.449 0.368,-0.817 0.817,-0.817 l 0,0 10.581,0 c 0.449,0 0.817,0.368 0.817,0.817 l 0,0 c 0,0.45 -0.368,0.817 -0.817,0.817 l 0,0 -10.581,0 z m -17.878,0 c -0.45,0 -0.817,-0.367 -0.817,-0.817 l 0,0 c 0,-0.449 0.367,-0.817 0.817,-0.817 l 0,0 12.06,0 c 0.449,0 0.817,0.368 0.817,0.817 l 0,0 c 0,0.45 -0.368,0.817 -0.817,0.817 l 0,0 -12.06,0 z m -11.158,0 c -0.449,0 -0.817,-0.367 -0.817,-0.817 l 0,0 c 0,-0.449 0.368,-0.817 0.817,-0.817 l 0,0 6.836,0 c 0.449,0 0.817,0.368 0.817,0.817 l 0,0 c 0,0.45 -0.368,0.817 -0.817,0.817 l 0,0 -6.836,0 z m 44.074,-3.118 c -0.45,0 -0.817,-0.368 -0.817,-0.817 l 0,0 c 0,-0.45 0.367,-0.817 0.817,-0.817 l 0,0 11.987,0 c 0.45,0 0.817,0.367 0.817,0.817 l 0,0 c 0,0.449 -0.367,0.817 -0.817,0.817 l 0,0 -11.987,0 z m -15.038,0 c -0.449,0 -0.817,-0.368 -0.817,-0.817 l 0,0 c 0,-0.45 0.368,-0.817 0.817,-0.817 l 0,0 10.581,0 c 0.449,0 0.817,0.367 0.817,0.817 l 0,0 c 0,0.449 -0.368,0.817 -0.817,0.817 l 0,0 -10.581,0 z m -6.352,0 c -0.45,0 -0.817,-0.368 -0.817,-0.817 l 0,0 c 0,-0.45 0.367,-0.817 0.817,-0.817 l 0,0 0.534,0 c 0.449,0 0.817,0.367 0.817,0.817 l 0,0 c 0,0.449 -0.368,0.817 -0.817,0.817 l 0,0 -0.534,0 z m -22.684,0 c -0.449,0 -0.817,-0.368 -0.817,-0.817 l 0,0 c 0,-0.45 0.368,-0.817 0.817,-0.817 l 0,0 6.836,0 c 0.449,0 0.817,0.367 0.817,0.817 l 0,0 c 0,0.449 -0.368,0.817 -0.817,0.817 l 0,0 -6.836,0 z m 44.074,-3.119 c -0.45,0 -0.817,-0.368 -0.817,-0.818 l 0,0 c 0,-0.449 0.367,-0.817 0.817,-0.817 l 0,0 11.987,0 c 0.45,0 0.817,0.368 0.817,0.817 l 0,0 c 0,0.45 -0.367,0.818 -0.817,0.818 l 0,0 -11.987,0 z m -10.878,0 c -0.449,0 -0.817,-0.368 -0.817,-0.818 l 0,0 c 0,-0.449 0.368,-0.817 0.817,-0.817 l 0,0 6.421,0 c 0.449,0 0.817,0.368 0.817,0.817 l 0,0 c 0,0.45 -0.368,0.818 -0.817,0.818 l 0,0 -6.421,0 z m -12.68,0 c -0.45,0 -0.817,-0.368 -0.817,-0.818 l 0,0 c 0,-0.449 0.367,-0.817 0.817,-0.817 l 0,0 2.702,0 c 0.449,0 0.817,0.368 0.817,0.817 l 0,0 c 0,0.45 -0.368,0.818 -0.817,0.818 l 0,0 -2.702,0 z m -20.516,0 c -0.449,0 -0.817,-0.368 -0.817,-0.818 l 0,0 c 0,-0.449 0.368,-0.817 0.817,-0.817 l 0,0 6.836,0 c 0.449,0 0.817,0.368 0.817,0.817 l 0,0 c 0,0.45 -0.368,0.818 -0.817,0.818 l 0,0 -6.836,0 z m 44.197,-3.119 c -0.45,0 -0.818,-0.368 -0.818,-0.817 l 0,0 c 0,-0.45 0.368,-0.817 0.818,-0.817 l 0,0 11.987,0 c 0.45,0 0.817,0.367 0.817,0.817 l 0,0 c 0,0.449 -0.367,0.817 -0.817,0.817 l 0,0 -11.987,0 z m -15.051,0 c -0.449,0 -0.817,-0.368 -0.817,-0.817 l 0,0 c 0,-0.45 0.368,-0.817 0.817,-0.817 l 0,0 10.58,0 c 0.449,0 0.818,0.367 0.818,0.817 l 0,0 c 0,0.449 -0.369,0.817 -0.818,0.817 l 0,0 -10.58,0 z m -11.57,0 c -0.45,0 -0.817,-0.368 -0.817,-0.817 l 0,0 c 0,-0.45 0.367,-0.817 0.817,-0.817 l 0,0 5.717,0 c 0.45,0 0.817,0.367 0.817,0.817 l 0,0 c 0,0.449 -0.367,0.817 -0.817,0.817 l 0,0 -5.717,0 z m -17.499,0 c -0.45,0 -0.818,-0.368 -0.818,-0.817 l 0,0 c 0,-0.45 0.368,-0.817 0.818,-0.817 l 0,0 6.834,0 c 0.45,0 0.818,0.367 0.818,0.817 l 0,0 c 0,0.449 -0.368,0.817 -0.818,0.817 l 0,0 -6.834,0 z m 44.12,-3.119 c -0.45,0 -0.818,-0.369 -0.818,-0.818 l 0,0 c 0,-0.449 0.368,-0.817 0.818,-0.817 l 0,0 11.987,0 c 0.45,0 0.817,0.368 0.817,0.817 l 0,0 c 0,0.449 -0.367,0.818 -0.817,0.818 l 0,0 -11.987,0 z m -12.39,0 c -0.449,0 -0.817,-0.369 -0.817,-0.818 l 0,0 c 0,-0.449 0.368,-0.817 0.817,-0.817 l 0,0 7.919,0 c 0.449,0 0.818,0.368 0.818,0.817 l 0,0 c 0,0.449 -0.369,0.818 -0.818,0.818 l 0,0 -7.919,0 z m -8.781,0 c -0.449,0 -0.817,-0.369 -0.817,-0.818 l 0,0 c 0,-0.449 0.368,-0.817 0.817,-0.817 l 0,0 0.267,0 c 0.45,0 0.817,0.368 0.817,0.817 l 0,0 c 0,0.449 -0.367,0.818 -0.817,0.818 l 0,0 -0.267,0 z m -22.949,0 c -0.45,0 -0.818,-0.369 -0.818,-0.818 l 0,0 c 0,-0.449 0.368,-0.817 0.818,-0.817 l 0,0 6.834,0 c 0.45,0 0.818,0.368 0.818,0.817 l 0,0 c 0,0.449 -0.368,0.818 -0.818,0.818 l 0,0 -6.834,0 z m 44.12,-3.119 c -0.45,0 -0.818,-0.368 -0.818,-0.818 l 0,0 c 0,-0.449 0.368,-0.817 0.818,-0.817 l 0,0 11.987,0 c 0.45,0 0.817,0.368 0.817,0.817 l 0,0 c 0,0.45 -0.367,0.818 -0.817,0.818 l 0,0 -11.987,0 z m -14.507,0 c -0.45,0 -0.818,-0.368 -0.818,-0.818 l 0,0 c 0,-0.449 0.368,-0.817 0.818,-0.817 l 0,0 10.036,0 c 0.449,0 0.818,0.368 0.818,0.817 l 0,0 c 0,0.45 -0.369,0.818 -0.818,0.818 l 0,0 -10.036,0 z m -17.064,0 c -0.449,0 -0.817,-0.368 -0.817,-0.818 l 0,0 c 0,-0.449 0.368,-0.817 0.817,-0.817 l 0,0 10.667,0 c 0.45,0 0.817,0.368 0.817,0.817 l 0,0 c 0,0.45 -0.367,0.818 -0.817,0.818 l 0,0 -10.667,0 z m -12.549,0 c -0.45,0 -0.818,-0.368 -0.818,-0.818 l 0,0 c 0,-0.449 0.368,-0.817 0.818,-0.817 l 0,0 6.834,0 c 0.45,0 0.818,0.368 0.818,0.817 l 0,0 c 0,0.45 -0.368,0.818 -0.818,0.818 l 0,0 -6.834,0 z m 44.12,-3.119 c -0.45,0 -0.818,-0.368 -0.818,-0.817 l 0,0 c 0,-0.45 0.368,-0.818 0.818,-0.818 l 0,0 11.987,0 c 0.45,0 0.817,0.368 0.817,0.818 l 0,0 c 0,0.449 -0.367,0.817 -0.817,0.817 l 0,0 -11.987,0 z m -15.051,0 c -0.449,0 -0.817,-0.368 -0.817,-0.817 l 0,0 c 0,-0.45 0.368,-0.818 0.817,-0.818 l 0,0 10.58,0 c 0.449,0 0.818,0.368 0.818,0.818 l 0,0 c 0,0.449 -0.369,0.817 -0.818,0.817 l 0,0 -10.58,0 z m -11.769,0 c -0.45,0 -0.818,-0.368 -0.818,-0.817 l 0,0 c 0,-0.45 0.368,-0.818 0.818,-0.818 l 0,0 5.916,0 c 0.45,0 0.817,0.368 0.817,0.818 l 0,0 c 0,0.449 -0.367,0.817 -0.817,0.817 l 0,0 -5.916,0 z m -17.3,0 c -0.45,0 -0.818,-0.368 -0.818,-0.817 l 0,0 c 0,-0.45 0.368,-0.818 0.818,-0.818 l 0,0 6.834,0 c 0.45,0 0.818,0.368 0.818,0.818 l 0,0 c 0,0.449 -0.368,0.817 -0.818,0.817 l 0,0 -6.834,0 z" /></clipPath><clipPath
       id="clipPath204"
       clipPathUnits="userSpaceOnUse"><path
         inkscape:connector-curvature="0"
         id="path206"
         d="m -32768,32767 65535,0 0,-65535 -65535,0 0,65535 z" /></clipPath><linearGradient
       id="linearGradient208"
       spreadMethod="pad"
       gradientTransform="matrix(0,29.86697,29.86697,0,62.280125,56.211143)"
       gradientUnits="userSpaceOnUse"
       y2="0"
       x2="1"
       y1="0"
       x1="0"><stop
         id="stop210"
         offset="0"
         style="stop-opacity:0.2;stop-color:#ffffff" /><stop
         id="stop212"
         offset="1"
         style="stop-opacity:1;stop-color:#ffffff" /></linearGradient><mask
       id="mask214"
       height="1"
       width="1"
       y="0"
       x="0"
       maskUnits="userSpaceOnUse"><g
         id="g216"><g
           id="g218"
           clip-path="url(#clipPath204)"><g
             id="g220"><g
               id="g222"><path
                 inkscape:connector-curvature="0"
                 id="path224"
                 style="fill:url(#linearGradient208);stroke:none"
                 d="m -32768,32767 65535,0 0,-65535 -65535,0 0,65535 z" /></g></g></g></g></mask><linearGradient
       id="linearGradient230"
       spreadMethod="pad"
       gradientTransform="matrix(0,29.86697,29.86697,0,9.7864357,-39.808564)"
       gradientUnits="userSpaceOnUse"
       y2="0"
       x2="1"
       y1="0"
       x1="0"><stop
         id="stop232"
         offset="0"
         style="stop-opacity:1;stop-color:#ffffff" /><stop
         id="stop234"
         offset="1"
         style="stop-opacity:1;stop-color:#ffffff" /></linearGradient><clipPath
       id="clipPath242"
       clipPathUnits="userSpaceOnUse"><path
         inkscape:connector-curvature="0"
         id="path244"
         d="m 0,146 124.56,0 0,-146 L 0,0 0,146 Z" /></clipPath><clipPath
       id="Clip0"><path
         d="M0 0 L242 0 L242 190 L0 190 L0 0 Z"
         transform="translate(0, 0)"
         id="path2490" /></clipPath></defs><sodipodi:namedview
     inkscape:document-rotation="0"
     inkscape:current-layer="layer3"
     inkscape:window-maximized="1"
     inkscape:window-y="-9"
     inkscape:window-x="-9"
     inkscape:cy="92.550822"
     inkscape:cx="64.316193"
     inkscape:zoom="3.6575825"
     showgrid="false"
     id="namedview4"
     inkscape:window-height="1001"
     inkscape:window-width="1920"
     inkscape:pageshadow="2"
     inkscape:pageopacity="0"
     guidetolerance="10"
     gridtolerance="10"
     objecttolerance="10"
     borderopacity="1"
     bordercolor="#666666"
     pagecolor="#ffffff"
     showguides="false"><inkscape:grid
       type="xygrid"
       id="grid2110" /></sodipodi:namedview><g
     style="display:inline"
     inkscape:label="Background"
     id="layer4"
     inkscape:groupmode="layer"><g
       id="g20"
       transform="matrix(1.25,0,0,-1.25,-3.02875,184.24975)"
       style="fill:#4d2972;fill-opacity:1;fill-rule:evenodd"><g
         id="g22"
         style="fill:#4d2972;fill-opacity:1;fill-rule:evenodd"><path
           d="m 2.422,38.688 v 68.945 l 59.858,34.478 59.859,-34.478 V 38.688 L 62.28,4.211 Z"
           style="fill:#4d2972;fill-opacity:1;fill-rule:evenodd;stroke:none"
           id="path30"
           inkscape:connector-curvature="0" /></g></g></g><g
     style="display:inline"
     transform="matrix(1.25,0,0,-1.25,0,182.5)"
     inkscape:label="Border"
     inkscape:groupmode="layer"
     id="g10"><path
       inkscape:connector-curvature="0"
       id="path34"
       style="fill:#aa8ee8;fill-opacity:1;fill-rule:nonzero;stroke:none"
       d="m 0,109.0332 v -71.745 l 62.28,-35.872 62.28,35.872 v 71.745 l -62.28,35.872 z m 4.844,-68.945 v 66.145 l 57.436,33.082 57.436,-33.082 V 40.0882 L 62.28,7.0062 Z" /><g
       font-family="Helvetica"
       font-size="16px"
       stroke-linecap="round"
       transform="matrix(0.12669185,0,0,-0.12809894,14.097952,-3.9285128)"
       id="g1366"
       style="fill:#f9f9f9;stroke-width:1.21086;stroke:#ffffff"><g
         stroke="#000000"
         stroke-width="2.05846"
         id="g1280"
         style="fill:#f9f9f9;stroke:#ffffff"><line
           x1="313"
           x2="281.07559"
           y1="246.43137"
           y2="227.9881"
           id="line1278"
           style="fill:#f9f9f9;stroke-width:2.05846;stroke:#ffffff" /></g><g
         stroke="#000000"
         stroke-width="2.05846"
         id="g1284"
         style="fill:#f9f9f9;stroke:#ffffff"><line
           x1="411"
           x2="411"
           y1="303.00156"
           y2="253"
           id="line1282"
           style="fill:#f9f9f9;stroke-width:2.05846;stroke:#ffffff" /></g><g
         stroke="#000000"
         stroke-linecap="butt"
         stroke-width="2.05846"
         id="g1288"
         style="fill:#f9f9f9;stroke:#ffffff"><line
           x1="356"
           x2="336"
           y1="234.76158"
           y2="246.29393"
           id="line1286"
           style="fill:#f9f9f9;stroke-width:2.05846;stroke:#ffffff" /></g><g
         stroke="#000000"
         stroke-width="2.05846"
         id="g1292"
         style="fill:#f9f9f9;stroke:#ffffff"><line
           x1="324.37"
           x2="324.37"
           y1="267"
           y2="303.00156"
           id="line1290"
           style="fill:#f9f9f9;stroke-width:2.05846;stroke:#ffffff" /></g><g
         stroke="#000000"
         stroke-width="2.05846"
         id="g1298"
         style="fill:#f9f9f9;stroke:#ffffff"><line
           x1="367.685"
           x2="411"
           y1="327.97775"
           y2="303.00156"
           id="line1294"
           style="fill:#f9f9f9;stroke-width:2.05846;stroke:#ffffff" /><line
           x1="366.97278"
           x2="403.79056"
           y1="319.23544"
           y2="298.00568"
           id="line1296"
           style="fill:#f9f9f9;stroke-width:2.05846;stroke:#ffffff" /></g><g
         stroke="#000000"
         stroke-width="2.05846"
         id="g1302"
         style="fill:#f9f9f9;stroke:#ffffff"><line
           x1="324.37"
           x2="367.685"
           y1="303.00156"
           y2="327.97775"
           id="line1300"
           style="fill:#f9f9f9;stroke-width:2.05846;stroke:#ffffff" /></g><g
         stroke="#000000"
         stroke-width="2.05846"
         id="g1308"
         style="fill:#f9f9f9;stroke:#ffffff"><line
           x1="281.11951"
           x2="281.07559"
           y1="177.98811"
           y2="227.9881"
           id="line1304"
           style="fill:#f9f9f9;stroke-width:2.05846;stroke:#ffffff" /><line
           x1="273.18701"
           x2="273.14969"
           y1="181.73116"
           y2="224.23114"
           id="line1306"
           style="fill:#f9f9f9;stroke-width:2.05846;stroke:#ffffff" /></g><g
         stroke="#000000"
         stroke-width="2.05846"
         id="g1314"
         style="fill:#f9f9f9;stroke:#ffffff"><line
           x1="325.8707"
           x2="295.5007"
           y1="305.59921"
           y2="323.14447"
           id="line1310"
           style="fill:#f9f9f9;stroke-width:2.05846;stroke:#ffffff" /><line
           x1="322.86926"
           x2="292.4993"
           y1="300.40387"
           y2="317.94913"
           id="line1312"
           style="fill:#f9f9f9;stroke-width:2.05846;stroke:#ffffff" /></g><g
         stroke="#000000"
         stroke-width="2.05846"
         id="g1320"
         style="fill:#f9f9f9;stroke:#ffffff"><line
           x1="237.8251"
           x2="194.57195"
           y1="152.97621"
           y2="177.91521"
           id="line1316"
           style="fill:#f9f9f9;stroke-width:2.05846;stroke:#ffffff" /><line
           x1="238.54176"
           x2="201.77657"
           y1="161.71582"
           y2="182.91396"
           id="line1318"
           style="fill:#f9f9f9;stroke-width:2.05846;stroke:#ffffff" /></g><g
         stroke="#000000"
         stroke-width="2.05846"
         id="g1326"
         style="fill:#f9f9f9;stroke:#ffffff"><line
           x1="411"
           x2="379"
           y1="253"
           y2="234.54823"
           id="line1322"
           style="fill:#f9f9f9;stroke-width:2.05846;stroke:#ffffff" /><line
           x1="404.63916"
           x2="377.43918"
           y1="258.4852"
           y2="242.80119"
           id="line1324"
           style="fill:#f9f9f9;stroke-width:2.05846;stroke:#ffffff" /></g><g
         stroke="#000000"
         stroke-width="2.05846"
         id="g1330"
         style="fill:#f9f9f9;stroke:#ffffff"><line
           x1="237.8251"
           x2="281.11951"
           y1="152.97621"
           y2="177.98811"
           id="line1328"
           style="fill:#f9f9f9;stroke-width:2.05846;stroke:#ffffff" /></g><g
         stroke="#000000"
         stroke-width="2.05846"
         id="g1334"
         style="fill:#f9f9f9;stroke:#ffffff"><line
           x1="281.07559"
           x2="237.82242"
           y1="227.9881"
           y2="252.92708"
           id="line1332"
           style="fill:#f9f9f9;stroke-width:2.05846;stroke:#ffffff" /></g><g
         stroke="#000000"
         stroke-width="2.05846"
         id="g1338"
         style="fill:#f9f9f9;stroke:#ffffff"><line
           x1="194.57195"
           x2="194.52803"
           y1="177.91521"
           y2="227.91518"
           id="line1336"
           style="fill:#f9f9f9;stroke-width:2.05846;stroke:#ffffff" /></g><g
         stroke="#000000"
         stroke-width="2.05846"
         id="g1342"
         style="fill:#f9f9f9;stroke:#ffffff"><line
           x1="411"
           x2="443"
           y1="303.00156"
           y2="321.48849"
           id="line1340"
           style="fill:#f9f9f9;stroke-width:2.05846;stroke:#ffffff" /></g><g
         stroke="#000000"
         stroke-width="2.05846"
         id="g1348"
         style="fill:#f9f9f9;stroke:#ffffff"><line
           x1="237.82242"
           x2="194.52803"
           y1="252.92708"
           y2="227.91518"
           id="line1344"
           style="fill:#f9f9f9;stroke-width:2.05846;stroke:#ffffff" /><line
           x1="238.54184"
           x2="201.74159"
           y1="244.18539"
           y2="222.92528"
           id="line1346"
           style="fill:#f9f9f9;stroke-width:2.05846;stroke:#ffffff" /></g><g
         stroke="#000000"
         stroke-width="2.05846"
         id="g1352"
         style="fill:#f9f9f9;stroke:#ffffff"><line
           x1="367.685"
           x2="367.685"
           y1="327.97775"
           y2="361"
           id="line1350"
           style="fill:#f9f9f9;stroke-width:2.05846;stroke:#ffffff" /></g><text
         fill="#000000"
         font-family="Arial"
         font-size="26.6667px"
         x="271.29999"
         y="336"
         id="text1354"
         style="fill:#f9f9f9;stroke-width:2.11285;stroke:#ffffff">O</text><text
         fill="#000000"
         font-family="Arial"
         font-size="26.6667px"
         x="445.29999"
         y="336"
         id="text1356"
         style="fill:#f9f9f9;stroke-width:2.11285;stroke:#ffffff">NH</text><text
         fill="#000000"
         font-family="Arial"
         font-size="21.3333px"
         x="483.29999"
         y="342"
         id="text1358"
         style="fill:#f9f9f9;stroke-width:2.11285;stroke:#ffffff">2</text><text
         fill="#000000"
         font-family="Arial"
         font-size="26.6667px"
         x="358.29999"
         y="386"
         id="text1360"
         style="fill:#f9f9f9;stroke-width:2.11285;stroke:#ffffff">Cl</text><text
         fill="#000000"
         font-family="Arial"
         font-size="26.6667px"
         x="315.29999"
         y="263"
         id="text1362"
         style="fill:#f9f9f9;stroke-width:2.11285;stroke:#ffffff">N</text><text
         fill="#000000"
         font-family="Arial"
         font-size="26.6667px"
         x="358.29999"
         y="238"
         id="text1364"
         style="fill:#f9f9f9;stroke-width:2.11285;stroke:#ffffff">N</text></g></g><g
     style="display:inline"
     inkscape:label="Bioconductor"
     id="layer3"
     inkscape:groupmode="layer" /><g
     style="display:inline"
     inkscape:label="Logo"
     id="layer2"
     inkscape:groupmode="layer"><path
       style="fill:#f9f9f9;stroke-width:0.999999"
       d="m 46.356456,135.70799 c -0.475607,-0.34277 -0.809287,-0.79768 -1.042416,-1.42118 -0.197408,-0.52797 -0.331421,-1.18008 -0.307725,-1.49743 0.03105,-0.4156 0.391243,-0.438 1.854812,-0.1153 1.110253,0.24479 1.50833,0.27321 2.534637,0.18097 1.235129,-0.111 2.299536,-0.36472 3.356275,-0.80004 1.108378,-0.45658 3.247832,-1.94631 6.978196,-4.859 1.392186,-1.08703 1.632365,-1.24454 3.428156,-2.24807 1.894026,-1.05843 2.387267,-1.38146 3.106461,-2.03454 0.487797,-0.44295 0.743689,-0.7929 1.446369,-1.97805 1.120003,-1.88902 1.718369,-3.21761 2.083252,-4.6256 0.198015,-0.76403 0.24926,-1.10519 0.29446,-1.96013 0.05403,-1.02208 0.274465,-2.66348 0.574803,-4.28042 0.0915,-0.49261 0.394525,-1.64323 0.744884,-2.82843 0.586353,-1.98351 0.593455,-2.00272 0.982634,-2.65298 0.570079,-0.95256 2.084407,-3.10517 2.73451,-3.88707 0.308692,-0.37128 0.751729,-0.855256 0.984526,-1.075517 0.658914,-0.62342 1.032306,-1.16799 1.218593,-1.77724 0.126934,-0.41514 0.145003,-0.57587 0.09387,-0.8344 -0.152671,-0.771694 -1.465639,-1.717434 -2.073195,-1.493344 -0.408545,0.15068 -0.368405,0.24219 0.198747,0.45306 0.627225,0.23319 1.091155,0.629634 1.221063,1.043414 0.0764,0.24335 0.06638,0.3216 -0.100146,0.78211 -0.218101,0.60313 -0.484652,0.94647 -0.917402,1.18169 -0.388538,0.21119 -0.94625,0.21954 -1.402518,0.021 -1.335755,-0.58125 -2.040293,-1.2906 -2.143817,-2.15844 -0.08861,-0.742754 0.429999,-1.799314 1.266115,-2.579444 0.502464,-0.46883 1.40652,-0.98994 2.119996,-1.22202 0.308154,-0.10023 2.331311,-0.51871 4.495913,-0.92996 9.395856,-1.78512 14.730465,-2.90896 17.391525,-3.66386 1.98561,-0.56329 9.042176,-3.32013 11.307526,-4.41761 0.80333,-0.38918 1.27007,-0.48938 1.5392,-0.33044 0.32728,0.19326 -0.10231,0.9062 -1.03173,1.71229 -1.89807,1.64616 -5.63133,4.2078 -8.90547,6.11063 -2.196056,1.27628 -4.652596,2.42573 -6.114948,2.86126 -2.521206,0.75088 -7.735981,1.53361 -11.694683,1.75534 -1.205109,0.0675 -2.84748,0.0714 -3.06441,0.007 -0.08327,-0.0246 -0.156245,-0.0284 -0.16218,-0.008 -0.0093,0.0313 0.03694,0.323124 0.06039,0.381324 0.01424,0.0353 2.002617,0.19745 3.389559,0.27635 3.881223,0.22082 7.177728,0.21079 8.856248,-0.0269 1.910414,-0.27059 8.314808,-1.973974 10.457354,-2.781344 0.6823,-0.25712 1.00808,-0.32079 1.26006,-0.24627 0.34827,0.10299 0.38547,0.26976 0.18465,0.82796 -0.14972,0.41615 -0.24245,0.55939 -0.65315,1.00892 -1.77924,1.947454 -5.361026,4.211404 -7.863696,4.970431 -1.5789,0.47886 -2.450399,0.5236 -4.777089,0.24529 -2.762391,-0.33043 -8.156644,-1.500517 -9.837829,-2.133967 -0.294798,-0.11108 -0.545515,-0.19944 -0.55714,-0.19636 -0.01166,0.003 -0.01504,0.0859 -0.0076,0.18398 0.0155,0.20403 -0.158995,0.12647 2.729387,1.213151 2.39118,0.899606 4.762362,1.708776 5.414192,1.847586 1.568574,0.33404 7.766879,1.14624 9.187259,1.20386 0.9346,0.0379 1.30496,0.23934 1.09828,0.59736 -0.54553,0.94502 -2.01907,1.50789 -4.250202,1.62353 -2.113832,0.10955 -4.029192,-0.21033 -6.576621,-1.09835 -2.207384,-0.76948 -5.234692,-2.04753 -6.403995,-2.70356 -0.813249,-0.45627 -0.95258,-0.49416 -1.482719,-0.40319 -0.556082,0.0954 -1.416836,0.52925 -1.962791,0.98926 -0.633675,0.53394 -1.728404,1.71974 -2.168005,2.34836 -0.641606,0.9175 -0.960933,1.6063 -1.214384,2.61951 -0.448166,1.7916 -0.347243,2.85988 0.889098,9.41162 0.186167,0.98657 0.29111,1.75551 0.274087,2.0084 -0.01755,0.26075 -0.152871,0.83148 -0.372116,1.56941 -0.292728,0.98478 -0.387435,1.22819 -0.629043,1.61437 -0.324703,0.51897 -0.933328,1.19416 -1.500348,1.66445 -0.237349,0.19685 -2.212416,1.32121 -5.082775,2.89349 -6.426746,3.52036 -6.215672,3.38538 -8.730793,5.58307 -3.173659,2.77309 -4.782437,3.98889 -5.729659,4.33004 -0.366404,0.13197 -1.320442,0.23717 -2.780328,0.30658 -2.105015,0.1001 -3.572021,-0.0942 -4.216171,-0.55844 z m 0.686909,-4.17585 c -0.691632,-0.33671 -1.371646,-0.98771 -1.497294,-1.4334 -0.05644,-0.20023 -0.04306,-0.32114 0.06724,-0.6066 0.268392,-0.69472 1.228045,-1.45302 2.904369,-2.29497 1.313655,-0.6598 1.906149,-1.16589 2.762918,-2.36003 0.182524,-0.25439 0.337711,-0.46782 0.344858,-0.47427 0.0071,-0.006 0.226942,0.11202 0.488444,0.26328 1.047235,0.60579 2.290627,1.77971 3.541601,3.34375 l 0.547344,0.68432 -0.227502,0.29386 c -0.575157,0.74293 -1.51769,1.37272 -2.729467,1.82379 -1.004939,0.37408 -3.312315,1.04223 -3.873394,1.12163 -0.79673,0.11273 -1.61656,-0.0145 -2.329121,-0.36136 z m 9.856343,-3.43185 c -0.118894,-0.59516 -1.011223,-1.46478 -3.237146,-3.15475 -1.323981,-1.00519 -1.485411,-1.13894 -1.463614,-1.21265 0.0085,-0.0287 0.221,-0.22098 0.472255,-0.42729 0.251255,-0.20631 0.75552,-0.64948 1.120592,-0.98481 l 0.663769,-0.60969 0.537927,0.17561 c 1.540762,0.50299 3.411882,1.97774 4.835906,3.8115 l 0.24572,0.31642 -0.3776,0.38969 c -0.435215,0.44915 -1.428101,1.19631 -2.204897,1.65922 l -0.536401,0.31965 z m 3.681475,-2.74179 c 0.01138,-0.27261 -0.36382,-0.84332 -0.814255,-1.23865 -0.430046,-0.37744 -1.401118,-1.03507 -2.386381,-1.61611 -1.375592,-0.81124 -2.106113,-1.36375 -2.125383,-1.6075 -0.0051,-0.0669 0.269067,-0.41646 0.660504,-0.84168 0.368245,-0.40004 0.8915,-1.00863 1.162791,-1.35241 0.366387,-0.46431 0.526662,-0.62055 0.623137,-0.60747 0.245954,0.0333 1.237462,0.62646 1.840986,1.10124 1.117132,0.87884 2.552855,2.55922 3.387826,3.96514 l 0.337214,0.56781 -0.276814,0.24724 c -0.396453,0.3541 -1.332101,0.98793 -1.91615,1.29804 -0.499067,0.265 -0.501011,0.26533 -0.493475,0.0844 z m 3.246558,-2.56362 c -0.898762,-1.69559 -2.923925,-3.69084 -5.042532,-4.96805 -0.378012,-0.22789 -0.694034,-0.42592 -0.702263,-0.44008 -0.0082,-0.0142 0.211795,-0.31647 0.488953,-0.67181 1.360725,-1.74457 2.509238,-3.59064 3.382394,-5.4367 0.485659,-1.0268 1.089006,-3.11522 1.147221,-3.97096 0.0231,-0.34009 0.05158,-0.62447 0.06319,-0.63197 0.01161,-0.007 0.425562,0.15271 0.919861,0.35601 2.926,1.20347 4.817768,1.74337 5.751524,1.64148 0.101031,-0.011 0.09694,0.0586 -0.03088,0.52559 -0.518463,1.89394 -0.903176,4.38304 -0.886468,5.73545 0.01001,0.81203 -0.03722,1.21824 -0.238121,2.04802 -0.49821,2.05756 -1.775349,4.20686 -3.205628,5.39474 -0.406642,0.33773 -1.28383,0.91692 -1.356242,0.89551 -0.02476,-0.007 -0.155742,-0.22209 -0.290984,-0.47723 z m 1.00475,-16.13727 c -0.563949,-0.22776 -1.044748,-0.47361 -1.482667,-0.75815 l -0.279948,-0.18189 -0.01224,-0.81496 c -0.0067,-0.44823 0.0051,-0.82456 0.02699,-0.83629 0.02161,-0.0117 0.220423,0.0961 0.441853,0.23968 0.854378,0.55392 1.558133,0.90635 2.34082,1.17224 0.984726,0.33453 2.911585,0.77475 3.374983,0.77107 0.189672,-0.002 0.495586,0.0418 0.679814,0.0963 l 0.334961,0.0991 -0.112908,0.54482 c -0.06211,0.29964 -0.115578,0.60873 -0.118843,0.68687 -0.0057,0.13563 -0.06264,0.13231 -1.260385,-0.0736 -2.262861,-0.38895 -2.984822,-0.56248 -3.932393,-0.94518 z m 16.6241,4.71222 c -1.174347,-0.54994 -2.751882,-3.08416 -2.995309,-4.81181 -0.06151,-0.43656 0.09574,-1.15302 0.405807,-1.84901 l 0.154346,-0.34645 -0.235364,-0.15375 c -0.296896,-0.19392 -0.557168,-0.60243 -0.628815,-0.98694 -0.07812,-0.41928 0.154358,-1.06853 0.477791,-1.33432 0.499839,-0.41074 1.271615,-0.44122 1.805105,-0.0713 0.252662,0.1752 0.529408,0.58984 0.584232,0.87534 0.03065,0.15951 0.07517,0.20579 0.21096,0.21923 0.38286,0.0379 0.586673,0.22632 1.195503,1.10533 0.73696,1.06401 1.477139,1.88375 2.23501,2.47526 0.973267,0.75962 3.14576,2.32494 3.996565,2.8796 1.211199,0.78961 1.724213,1.35649 1.601899,1.77011 -0.223477,0.7557 -3.991093,-0.32584 -6.644843,-1.90745 -1.318532,-0.78585 -2.435556,-1.74987 -3.049315,-2.63166 l -0.195385,-0.2807 0.156262,0.46501 c 0.529865,1.5768 1.153327,2.73521 1.816079,3.37433 0.53839,0.51917 0.690866,0.82309 0.569021,1.13416 -0.05868,0.14981 -0.148954,0.24201 -0.28136,0.28735 -0.237698,0.0814 -0.74692,-0.0103 -1.178189,-0.21233 z m -14.055778,-6.10046 c -0.758682,-0.26009 -2.198893,-0.86341 -3.37667,-1.41453 l -1.086519,-0.50841 0.03151,-0.24217 c 0.07577,-0.58221 0.579136,-2.40394 0.751517,-2.71983 0.206746,-0.37885 0.466921,-0.686137 0.58912,-0.695797 0.04712,-0.004 0.2802,0.10882 0.51792,0.250091 0.23772,0.141276 0.894662,0.477086 1.45987,0.746236 0.951727,0.45321 1.128442,0.5162 2.392001,0.85267 0.750397,0.1998 1.896457,0.47122 2.5468,0.60315 0.650343,0.13193 1.187521,0.25029 1.193725,0.26304 0.0062,0.0128 -0.155444,0.27348 -0.359217,0.57943 -0.524604,0.78761 -0.865934,1.36603 -1.173997,1.98946 -0.327917,0.66362 -0.508405,0.8591 -0.824989,0.8935 -0.247515,0.0269 -1.553187,-0.20888 -1.961876,-0.35427 -0.122073,-0.0434 -0.436712,-0.15259 -0.699203,-0.24257 z"
       id="path945" /><g
       id="g2454"
       transform="translate(4.1010695,-6.5868325)"><g
         id="g2386"
         transform="translate(-11.484661,8.4812346)"
         style="display:inline"><path
           style="fill:none;fill-opacity:1;stroke:#9bbefb;stroke-width:1px;stroke-linecap:butt;stroke-linejoin:miter;stroke-opacity:1"
           d="m 85,127 c 0,6.77943 0,13.33433 0,20"
           id="path2116"
           inkscape:path-effect="#path-effect2118"
           inkscape:original-d="m 85,127 c -0.16615,6.77943 0.001,13.33433 0,20" /><path
           style="fill:none;fill-opacity:1;stroke:#9bbefb;stroke-width:1px;stroke-linecap:butt;stroke-linejoin:miter;stroke-opacity:1"
           d="m 87,147 c 0,-1.33233 0,-2.66567 0,-4"
           id="path2120"
           inkscape:path-effect="#path-effect2122"
           inkscape:original-d="m 87,147 c 0.001,-1.33233 0.001,-2.66567 0,-4" /><path
           style="fill:none;fill-opacity:1;stroke:#9bbefb;stroke-width:1px;stroke-linecap:butt;stroke-linejoin:miter;stroke-opacity:1"
           d="m 95,140 c 0,2.44417 0,4.66737 0,7"
           id="path2124"
           inkscape:path-effect="#path-effect2126"
           inkscape:original-d="m 95,140 c -0.12749,2.44417 0.001,4.66737 0,7" /><path
           style="fill:none;fill-opacity:1;stroke:#9bbefb;stroke-width:1px;stroke-linecap:butt;stroke-linejoin:miter;stroke-opacity:1"
           d="m 90,132 c 0,5.001 0,10.001 0,15"
           id="path2128"
           inkscape:path-effect="#path-effect2130"
           inkscape:original-d="m 90,132 c 0.001,5.001 0.001,10.001 0,15" /><path
           style="fill:none;fill-opacity:1;stroke:#9bbefb;stroke-width:1px;stroke-linecap:butt;stroke-linejoin:miter;stroke-opacity:1"
           d="m 100,147 c 0,-4.17057 0,-8.34215 0,-12.51472"
           id="path2132"
           inkscape:path-effect="#path-effect2134"
           inkscape:original-d="m 100,147 c 0.001,-4.17057 0.001,-8.34215 0,-12.51472" /><path
           style="fill:#f9f9f9;stroke:#f9f9f9;stroke-width:1px;stroke-linecap:butt;stroke-linejoin:miter;stroke-opacity:1"
           d="m 82,147 c 7.66767,0 15.33433,0 23,0"
           id="path2136"
           inkscape:path-effect="#path-effect2138"
           inkscape:original-d="m 82,147 c 7.66767,0.001 15.33433,0.001 23,0" /></g><g
         id="g2416"
         transform="translate(-11.986228,5.026483)"
         style="display:inline"><path
           style="display:inline;fill:none;fill-opacity:1;stroke:#fb9bc6;stroke-width:1px;stroke-linecap:butt;stroke-linejoin:miter;stroke-opacity:1"
           d="m 116.69393,112.80308 c 0,6.77943 0,13.33433 0,20"
           id="path2116-0"
           inkscape:path-effect="#path-effect2362"
           inkscape:original-d="m 116.69393,112.80308 c -0.16615,6.77943 0.001,13.33433 0,20" /><path
           style="display:inline;fill:none;fill-opacity:1;stroke:#fb9bc6;stroke-width:1px;stroke-linecap:butt;stroke-linejoin:miter;stroke-opacity:1"
           d="m 125.69393,125.80308 c 0,2.44417 0,4.66737 0,7"
           id="path2124-4"
           inkscape:path-effect="#path-effect2366"
           inkscape:original-d="m 125.69393,125.80308 c -0.12749,2.44417 0.001,4.66737 0,7" /><path
           style="display:inline;fill:none;fill-opacity:1;stroke:#fb9bc6;stroke-width:1px;stroke-linecap:butt;stroke-linejoin:miter;stroke-opacity:1"
           d="m 110.69393,132.80308 c 0,-4.17057 0,-8.34215 0,-12.51472"
           id="path2132-4"
           inkscape:path-effect="#path-effect2370"
           inkscape:original-d="m 110.69393,132.80308 c 0.001,-4.17057 0.001,-8.34215 0,-12.51472" /><path
           style="display:inline;fill:#f9f9f9;stroke:#f9f9f9;stroke-width:1px;stroke-linecap:butt;stroke-linejoin:miter;stroke-opacity:1"
           d="m 105.79059,133.19219 c 7.66767,0 15.33433,0 23,0"
           id="path2136-5"
           inkscape:path-effect="#path-effect2372"
           inkscape:original-d="m 105.79059,133.19219 c 7.66767,10e-4 15.33433,10e-4 23,0" /></g><g
         id="g2314"
         transform="translate(3.9332627,-2.3336865)"><path
           style="display:inline;fill:#f9f9f9;stroke:#f9f9f9;stroke-width:0.7;stroke-linecap:butt;stroke-linejoin:miter;stroke-miterlimit:4;stroke-dasharray:none;stroke-opacity:1"
           d="m 108.78179,118.87666 c 7.66767,0 15.33433,0 23,0"
           id="path2136-3"
           inkscape:path-effect="#path-effect2257"
           inkscape:original-d="m 108.78179,118.87666 c 7.66767,0.001 15.33433,0.001 23,0" /><path
           style="display:inline;fill:none;stroke:#9bbefb;stroke-width:0.4;stroke-linecap:butt;stroke-linejoin:miter;stroke-miterlimit:4;stroke-dasharray:0.4, 0.4;stroke-dashoffset:0;stroke-opacity:1"
           d="m 114.87284,118.03547 c 2.48939,-11.38082 4.97905,-22.762822 7.46903,-22.762586 2.48999,2.37e-4 4.9797,11.382476 7.46894,22.762586"
           id="path1834-2-8-5"
           inkscape:path-effect="#path-effect1946"
           inkscape:original-d="m 114.87284,118.03547 c 2.49136,-11.38039 4.98035,-22.762537 7.46898,-34.146111 2.4909,11.383574 4.98103,22.765721 7.46899,34.146111"
           sodipodi:nodetypes="ccc" /><path
           style="display:inline;fill:none;stroke:#9bbefb;stroke-width:0.4;stroke-linecap:butt;stroke-linejoin:miter;stroke-miterlimit:4;stroke-dasharray:0.4, 0.4;stroke-dashoffset:0;stroke-opacity:1"
           d="m 114.87284,118.50213 c 2.48935,-16.35335 4.979,-32.708719 7.46904,-32.708323 2.49004,3.95e-4 4.97966,16.355483 7.46893,32.708323"
           id="path1834-24-0-3"
           inkscape:path-effect="#path-effect1976"
           inkscape:original-d="m 114.87284,118.50213 c 2.49136,-16.35304 4.98103,-32.70841 7.46898,-49.066209 2.49143,16.358079 4.98103,32.713169 7.46899,49.066209" /><path
           style="display:inline;fill:none;stroke:#9bbefb;stroke-width:0.399999;stroke-linecap:butt;stroke-linejoin:miter;stroke-miterlimit:4;stroke-dasharray:0.399999, 0.399999;stroke-dashoffset:0;stroke-opacity:1"
           d="m 114.87284,118.01239 c 2.48944,-9.42721 4.97909,-18.855218 7.46912,-18.854708 2.49002,5.1e-4 4.97963,9.428338 7.46885,18.854708"
           id="path1834-24-0-3-5"
           inkscape:path-effect="#path-effect2008"
           inkscape:original-d="m 114.87284,118.01239 c 2.49136,-9.4267 4.98103,-18.854705 7.46898,-28.284139 2.49143,9.429607 4.98103,18.857439 7.46899,28.284139" /><path
           style="fill:none;stroke:#fb9bc6;stroke-width:0.4;stroke-linecap:butt;stroke-linejoin:miter;stroke-miterlimit:4;stroke-dasharray:0.4, 0.4;stroke-dashoffset:0;stroke-opacity:1"
           d="m 110.07671,118.02746 c 1.6537,-7.85562 3.30758,-15.71208 4.96171,-15.71177 1.65413,3e-4 3.30798,7.85661 4.96158,15.71177"
           id="path1834"
           inkscape:path-effect="#path-effect1836"
           inkscape:original-d="m 110.07671,118.02746 c 1.65501,-7.85534 3.3089,-15.7118 4.96165,-23.569413 1.65505,7.857763 3.30889,15.714073 4.96164,23.569413" /><path
           style="display:inline;fill:none;stroke:#fb9bc6;stroke-width:0.4;stroke-linecap:butt;stroke-linejoin:miter;stroke-miterlimit:4;stroke-dasharray:0.4, 0.4;stroke-dashoffset:0;stroke-opacity:1"
           d="m 110.07671,118.02746 c 1.6537,-7.85562 3.30758,-15.71208 4.96171,-15.71177 1.65413,3e-4 3.30798,7.85661 4.96158,15.71177"
           id="path1834-2"
           inkscape:path-effect="#path-effect1859"
           inkscape:original-d="m 110.07671,118.02746 c 1.65501,-7.85534 3.3089,-15.7118 4.96165,-23.569413 1.65505,7.857763 3.30889,15.714073 4.96164,23.569413" /><path
           style="display:inline;fill:none;stroke:#fb9bc6;stroke-width:0.4;stroke-linecap:butt;stroke-linejoin:miter;stroke-miterlimit:4;stroke-dasharray:0.4, 0.4;stroke-dashoffset:0;stroke-opacity:1"
           d="m 110.07671,118 c 1.65381,-4.52696 3.30769,-9.05412 4.9618,-9.05372 1.65411,4.1e-4 3.30795,4.52749 4.96149,9.05372"
           id="path1834-24"
           inkscape:path-effect="#path-effect1912"
           inkscape:original-d="m 110.07671,118 c 1.65501,-4.52652 3.3089,-9.05368 4.96165,-13.58151 1.65505,4.52791 3.30889,9.05499 4.96164,13.58151" /><path
           style="display:inline;fill:none;stroke:#fb9bc6;stroke-width:0.4;stroke-linecap:butt;stroke-linejoin:miter;stroke-miterlimit:4;stroke-dasharray:0.4, 0.4;stroke-dashoffset:0;stroke-opacity:1"
           d="m 110.07671,118 c 1.65381,-4.52696 3.30769,-9.05412 4.9618,-9.05372 1.65411,4.1e-4 3.30795,4.52749 4.96149,9.05372"
           id="path1834-2-8"
           inkscape:path-effect="#path-effect1914"
           inkscape:original-d="m 110.07671,118 c 1.65501,-4.52652 3.3089,-9.05368 4.96165,-13.58151 1.65505,4.52791 3.30889,9.05499 4.96164,13.58151" /><path
           style="display:inline;fill:none;stroke:#9bbefb;stroke-width:0.399999;stroke-linecap:butt;stroke-linejoin:miter;stroke-miterlimit:4;stroke-dasharray:0.399999, 0.399999;stroke-dashoffset:0;stroke-opacity:1"
           d="m 114.87284,118.43509 c 2.49039,-2.35954 4.98005,-4.71839 7.46991,-4.71751 2.48986,8.8e-4 4.97946,2.35967 7.46806,4.71751"
           id="path1834-24-0-3-5-9"
           inkscape:path-effect="#path-effect2288"
           inkscape:original-d="m 114.87284,118.43509 c 2.49136,-2.35851 4.98103,-4.71735 7.46898,-7.07655 2.49143,2.35924 4.98103,4.71804 7.46899,7.07655" /><path
           style="display:inline;fill:none;stroke:#9bbefb;stroke-width:0.399999;stroke-linecap:butt;stroke-linejoin:miter;stroke-miterlimit:4;stroke-dasharray:0.399999, 0.399999;stroke-dashoffset:0;stroke-opacity:1"
           d="m 114.87284,118.45944 c 2.48974,-4.78027 4.9794,-9.56038 7.46937,-9.55963 2.48998,7.4e-4 4.97958,4.78075 7.4686,9.55963"
           id="path1834-24-0-3-5-2"
           inkscape:path-effect="#path-effect2300"
           inkscape:original-d="m 114.87284,118.45944 c 2.49136,-4.77943 4.98103,-9.55953 7.46898,-14.34035 2.49143,4.78091 4.98103,9.56092 7.46899,14.34035" /><path
           style="display:inline;fill:none;stroke:#fb9bc6;stroke-width:0.4;stroke-linecap:butt;stroke-linejoin:miter;stroke-miterlimit:4;stroke-dasharray:0.4, 0.4;stroke-dashoffset:0;stroke-opacity:1"
           d="m 110.07671,117.94358 c 1.65398,-2.87012 3.30786,-5.74006 4.96194,-5.73955 1.65409,5.2e-4 3.30793,2.8704 4.96135,5.73955"
           id="path1834-2-8-8"
           inkscape:path-effect="#path-effect2409"
           inkscape:original-d="m 110.07671,117.94358 c 1.65501,-2.86953 3.3089,-5.73946 4.96165,-8.60984 1.65505,2.87042 3.30889,5.74031 4.96164,8.60984" /></g></g><g
       id="g2805"
       transform="translate(0.45338985)"><g
         style="clip-rule:evenodd;fill:#f9f9f9;stroke-width:8.45259;stroke-miterlimit:10"
         id="g1105"
         transform="matrix(0.11830579,0,0,0.11830579,47.522476,69.597191)"><g
           id="g1065"
           style="fill:#f9f9f9;stroke-width:8.45259"><g
             id="g1005"
             style="fill:#f9f9f9;stroke-width:8.45259"><path
               d="M 64.08,77.66 V 61.33 h 2.22 l 8.56,12.81 V 61.33 h 2.07 V 77.66 H 74.71 L 66.16,64.84 v 12.82 z m 0,0"
               fill="#000000"
               id="path1003"
               style="fill:#f9f9f9;stroke-width:40.9031" /></g><g
             id="g1009"
             style="fill:#f9f9f9;stroke-width:8.45259"><path
               d="M 96.76,134.23 V 117.9 h 2.22 l 8.56,12.81 V 117.9 h 2.07 v 16.33 h -2.22 l -8.55,-12.81 v 12.81 z m 0,0"
               fill="#000000"
               id="path1007"
               style="fill:#f9f9f9;stroke-width:40.9031" /></g><path
             d="m 71.37,105.92 -1.62,0.95 V 79.75 h 1.62 z m 0,0"
             fill="#000000"
             id="path1011"
             style="fill:#f9f9f9;stroke-width:40.9031" /><path
             d="m 93.83,118.89 -0.8,1.37 -23.28,-13.39 1.62,-0.95 z m 0,0"
             fill="#000000"
             id="path1013"
             style="fill:#f9f9f9;stroke-width:40.9031" /><path
             d="m 135.02,105.92 0.85,0.47 0.05,0.86 -22.61,13.06 -0.81,-1.37 z m 0,0"
             fill="#000000"
             id="path1015"
             style="fill:#f9f9f9;stroke-width:40.9031" /><path
             d="m 135.02,69.15 0.85,-0.47 0.81,0.57 v 36.53 l -0.81,0.61 -0.85,-0.47 z m 0,0"
             fill="#000000"
             id="path1017"
             style="fill:#f9f9f9;stroke-width:40.9031" /><path
             d="m 140.72,72.81 h 1.61 v 29.45 h -1.61 z m 0,0"
             fill="#000000"
             id="path1019"
             style="fill:#f9f9f9;stroke-width:40.9031" /><path
             d="m 103.19,50.77 v -1.85 l 32.73,18.9 -0.05,0.86 -0.85,0.47 z m 0,0"
             fill="#000000"
             id="path1021"
             style="fill:#f9f9f9;stroke-width:40.9031" /><path
             d="m 80.68,63.79 -0.81,-1.43 23.32,-13.44 v 1.85 z m 0,0"
             fill="#000000"
             id="path1023"
             style="fill:#f9f9f9;stroke-width:40.9031" /><g
             id="g1027"
             style="fill:#f9f9f9;stroke-width:8.45259"><path
               d="m 165.25,127.01 v -16.33 h 2.23 l 8.55,12.82 v -12.82 h 2.08 v 16.33 h -2.22 l -8.56,-12.81 v 12.81 z m 0,0"
               fill="#000000"
               id="path1025"
               style="fill:#f9f9f9;stroke-width:40.9031" /></g><g
             id="g1031"
             style="fill:#f9f9f9;stroke-width:8.45259"><path
               d="M 165.25,66.02 V 49.69 h 2.23 l 8.55,12.82 V 49.69 h 2.08 v 16.33 h -2.22 l -8.56,-12.81 v 12.81 z m 0,0"
               fill="#000000"
               id="path1029"
               style="fill:#f9f9f9;stroke-width:40.9031" /></g><path
             d="m 162.57,114.23 -0.53,1.52 -26.12,-8.5 -0.05,-0.86 0.81,-0.61 z m 0,0"
             fill="#000000"
             id="path1033"
             style="fill:#f9f9f9;stroke-width:40.9031" /><path
             d="m 192.87,87.54 h 2 l -15.54,21.37 -1.33,-0.95 z m 0,0"
             fill="#000000"
             id="path1035"
             style="fill:#f9f9f9;stroke-width:40.9031" /><path
             d="m 186.22,87.06 1.28,0.95 -12.73,17.58 -1.33,-0.95 z m 0,0"
             fill="#000000"
             id="path1037"
             style="fill:#f9f9f9;stroke-width:40.9031" /><path
             d="m 178.76,68.11 1.33,-0.95 14.78,20.38 h -2 z m 0,0"
             fill="#000000"
             id="path1039"
             style="fill:#f9f9f9;stroke-width:40.9031" /><path
             d="m 136.68,69.25 -0.81,-0.57 0.05,-0.86 26.12,-8.5 0.53,1.52 z m 0,0"
             fill="#000000"
             id="path1041"
             style="fill:#f9f9f9;stroke-width:40.9031" /><g
             id="g1045"
             style="fill:#f9f9f9;stroke-width:8.45259"><path
               d="m 30.14,126.24 c 0,-2.71 0.73,-4.84 2.19,-6.37 1.45,-1.53 3.33,-2.3 5.63,-2.3 1.51,0 2.87,0.36 4.08,1.08 1.21,0.72 2.13,1.73 2.77,3.02 0.63,1.28 0.95,2.74 0.95,4.38 0,1.65 -0.34,3.13 -1,4.44 -0.67,1.31 -1.62,2.3 -2.84,2.97 -1.23,0.67 -2.55,1.01 -3.97,1.01 -1.54,0 -2.91,-0.38 -4.12,-1.12 -1.21,-0.74 -2.13,-1.75 -2.75,-3.04 -0.63,-1.28 -0.94,-2.64 -0.94,-4.07 z m 2.23,0.02 c 0,1.97 0.53,3.52 1.59,4.65 1.06,1.13 2.38,1.7 3.98,1.7 1.63,0 2.96,-0.57 4.02,-1.72 1.05,-1.14 1.57,-2.76 1.57,-4.86 0,-1.33 -0.22,-2.49 -0.67,-3.48 -0.45,-0.99 -1.11,-1.76 -1.97,-2.3 -0.87,-0.55 -1.84,-0.82 -2.92,-0.82 -1.53,0 -2.84,0.52 -3.95,1.57 -1.1,1.05 -1.65,2.81 -1.65,5.26 z m 0,0"
               fill="#000000"
               id="path1043"
               style="fill:#f9f9f9;stroke-width:40.9031" /></g><path
             d="m 48.28,123.45 -0.81,-1.43 25.51,-14.72 0.81,1.42 z m 0,0"
             fill="#000000"
             id="path1047"
             style="fill:#f9f9f9;stroke-width:40.9031" /><path
             d="m 45.43,118.55 -0.81,-1.42 25.51,-14.73 0.81,1.43 z m 0,0"
             fill="#000000"
             id="path1049"
             style="fill:#f9f9f9;stroke-width:40.9031" /><g
             id="g1053"
             style="fill:#f9f9f9;stroke-width:8.45259"><path
               d="m 95.41,13.19 c 0,-2.71 0.73,-4.84 2.18,-6.37 1.46,-1.53 3.34,-2.3 5.64,-2.3 1.51,0 2.86,0.36 4.07,1.08 1.21,0.72 2.14,1.73 2.77,3.02 0.64,1.28 0.95,2.74 0.95,4.38 0,1.65 -0.33,3.13 -1,4.44 -0.67,1.31 -1.61,2.3 -2.84,2.97 -1.22,0.67 -2.55,1.01 -3.96,1.01 -1.54,0 -2.91,-0.38 -4.12,-1.12 -1.22,-0.74 -2.13,-1.75 -2.76,-3.04 -0.62,-1.28 -0.93,-2.64 -0.93,-4.07 z m 2.22,0.02 c 0,1.97 0.53,3.52 1.59,4.65 1.06,1.13 2.39,1.7 3.98,1.7 1.63,0 2.97,-0.57 4.02,-1.72 1.05,-1.14 1.58,-2.76 1.58,-4.86 0,-1.33 -0.23,-2.49 -0.68,-3.48 -0.45,-0.99 -1.1,-1.76 -1.97,-2.3 -0.86,-0.55 -1.83,-0.82 -2.91,-0.82 -1.53,0 -2.85,0.52 -3.95,1.57 -1.1,1.05 -1.66,2.81 -1.66,5.26 z m 0,0"
               fill="#000000"
               id="path1051"
               style="fill:#f9f9f9;stroke-width:40.9031" /></g><path
             d="m 99.58,23.55 h 1.62 v 27.93 h -1.62 z m 0,0"
             fill="#000000"
             id="path1055"
             style="fill:#f9f9f9;stroke-width:40.9031" /><path
             d="m 105.23,23.55 h 1.62 v 27.93 h -1.62 z m 0,0"
             fill="#000000"
             id="path1057"
             style="fill:#f9f9f9;stroke-width:40.9031" /><path
             d="M 102.38,134.47 H 104 v 33.62 h -1.62 z m 0,0"
             fill="#000000"
             id="path1059"
             style="fill:#f9f9f9;stroke-width:40.9031" /><path
             d="m 32.37,44.31 0.83,-1.38 28.82,17.31 -0.83,1.39 z m 0,0"
             fill="#000000"
             id="path1061"
             style="fill:#f9f9f9;stroke-width:40.9031" /><path
             d="m 187.68,15.21 1.52,0.55 -11.5,31.59 -1.52,-0.55 z m 0,0"
             fill="#000000"
             id="path1063"
             style="fill:#f9f9f9;stroke-width:40.9031" /></g></g><g
         id="Gruppe1"
         clip-path="url(#Clip0)"
         transform="matrix(0.11543007,0,0,0.11543007,12.990254,97.5652)"
         style="fill:#f9f9f9;stroke-width:11.551"><path
           style="fill:#f9f9f9;fill-rule:nonzero;stroke:none;stroke-width:11.551"
           d="M 1.7002,39.8 0.8506,40.3 0,39.65 V 1.25 L 1.7002,0 Z"
           transform="translate(64.5996,106.55)"
           id="path2495" /><path
           style="fill:#f9f9f9;fill-rule:nonzero;stroke:none;stroke-width:11.551"
           d="M 0,13.9 0.6494,11.9 37.1992,0 38.0498,0.65 37.8496,1.6 Z"
           transform="translate(27.4004,146.2)"
           id="path2497" /><path
           style="fill:#f9f9f9;fill-rule:nonzero;stroke:none;stroke-width:11.551"
           d="m 0,0 h 2.10059 l 22.59961,31.1 -0.6494,2 z"
           transform="translate(3.34961,127)"
           id="path2499" /><path
           style="fill:#f9f9f9;fill-rule:nonzero;stroke:none;stroke-width:11.551"
           d="M 24.0508,0 24.7002,2 2.10059,33.0996 H 0 Z"
           transform="translate(3.34961,93.9004)"
           id="path2501" /><path
           style="fill:#f9f9f9;fill-rule:nonzero;stroke:none;stroke-width:11.551"
           d="m 38.8994,12.6496 -1.7002,1.25 L 0.6494,2 0,0 Z"
           transform="translate(27.4004,93.9004)"
           id="path2503" /><path
           style="fill:#f9f9f9;fill-rule:evenodd;stroke:none;stroke-width:11.551"
           d="M 8.42185,0 C 3.41015,0 0,3.6953 0,9.1679 c 0,5.4922 3.38285,9.1641 8.44925,9.1641 2.13275,0 4.00385,-0.6484 5.42175,-1.8477 1.8946,-1.6054 3.0235,-4.3164 3.0235,-7.1718 C 16.8945,3.6718 13.5585,0 8.42185,0 Z m 0,1.9687 c 3.79295,0 6.23825,2.8555 6.23825,7.293 0,4.2265 -2.5195,7.1054 -6.21085,7.1054 -3.7461,0 -6.21488,-2.8789 -6.21488,-7.1992 0,-4.3203 2.46878,-7.1992 6.18748,-7.1992 z"
           transform="translate(7.06055,48.8184)"
           id="path2505" /><path
           style="fill:#f9f9f9;fill-rule:nonzero;stroke:none;stroke-width:11.551"
           d="M 0,0.5 1.6504,0 10.8496,28.3994 9.25,28.9502 Z"
           transform="translate(15.5,69.2002)"
           id="path2507" /><path
           style="fill:#f9f9f9;fill-rule:nonzero;stroke:none;stroke-width:11.551"
           d="M 0,0.5 1.6494,0 10.8496,28.4004 9.25,28.9502 Z"
           transform="translate(21.1504,67.3496)"
           id="path2509" /><path
           style="fill:#f9f9f9;fill-rule:nonzero;stroke:none;stroke-width:11.551"
           d="M 35.65,21.4 29.1504,26.15 0,1.45 0.2002,0.5 1.0498,0 Z"
           transform="translate(65.25,146.35)"
           id="path2511" /><path
           style="fill:#f9f9f9;fill-rule:nonzero;stroke:none;stroke-width:11.551"
           d="m 1.2998,0 4.5,6.2002 -1.5,0.8496 L 0,1.1504 Z"
           transform="translate(90.5498,83.25)"
           id="path2513" /><path
           style="fill:#f9f9f9;fill-rule:nonzero;stroke:none;stroke-width:11.551"
           d="M 1.3008,0 5.25,5.4502 3.8008,6.2998 0,1.1504 Z"
           transform="translate(86.8496,86.5)"
           id="path2515" /><path
           style="fill:#f9f9f9;fill-rule:nonzero;stroke:none;stroke-width:11.551"
           d="M 1.25,0 4.6494,4.6504 3.2002,5.5498 0,1.1006 Z"
           transform="translate(83.2002,89.7998)"
           id="path2517" /><path
           style="fill:#f9f9f9;fill-rule:nonzero;stroke:none;stroke-width:11.551"
           d="M 1.25,0 4.0996,3.9004 2.6504,4.7998 0,1.1504 Z"
           transform="translate(79.5,93.0498)"
           id="path2519" /><path
           style="fill:#f9f9f9;fill-rule:nonzero;stroke:none;stroke-width:11.551"
           d="M 1.25,0 3.5498,3.1504 2.1006,4.0502 0,1.1504 Z"
           transform="translate(75.7998,96.2998)"
           id="path2521" /><path
           style="fill:#f9f9f9;fill-rule:nonzero;stroke:none;stroke-width:11.551"
           d="M 1.3008,0 3,2.4002 1.5508,3.3002 0,1.1502 Z"
           transform="translate(72.0996,99.5498)"
           id="path2523" /><path
           style="fill:#f9f9f9;fill-rule:nonzero;stroke:none;stroke-width:11.551"
           d="M 1.2998,0 2.4492,1.6 1,2.5 0,1.1 Z"
           transform="translate(68.4004,102.85)"
           id="path2525" /><path
           style="fill:#f9f9f9;fill-rule:nonzero;stroke:none;stroke-width:11.551"
           d="M 0,0 1.7998,0.7998 5.9004,39.75 4.2002,39.9502 Z"
           transform="translate(92.5,44)"
           id="path2527" /><path
           style="fill:#f9f9f9;fill-rule:nonzero;stroke:none;stroke-width:11.551"
           d="M 32.85,0 33.05,1.9492 1.7998,24.6494 0,23.8496 Z"
           transform="translate(92.5,20.1504)"
           id="path2529" /><path
           style="fill:#f9f9f9;fill-rule:nonzero;stroke:none;stroke-width:11.551"
           d="m 26.5496,0 1,1.4004 -26.55,19.25 L 0,19.2998 Z"
           transform="translate(99.1504,27.25)"
           id="path2531" /><path
           style="fill:#f9f9f9;fill-rule:nonzero;stroke:none;stroke-width:11.551"
           d="m 36.25,16.0996 0.2,1.9502 L 0.2,1.9492 0,0 Z"
           transform="translate(125.35,20.1504)"
           id="path2533" /><path
           style="fill:#f9f9f9;fill-rule:evenodd;stroke:none;stroke-width:11.551"
           d="M 14.73,5.71096 C 14.035,1.875 11.828,0 7.988,0 5.637,0 3.742,0.74609 2.445,2.18359 0.863,3.91406 0,6.41016 0,9.23826 0,12.1172 0.887,14.5899 2.519,16.293 c 1.368,1.3906 3.094,2.0391 5.375,2.0391 4.27,0 6.668,-2.3008 7.196,-6.9336 h -2.301 c -0.191,1.1992 -0.434,2.0156 -0.793,2.7109 -0.719,1.4414 -2.207,2.2578 -4.078,2.2578 -3.481,0 -5.688,-2.7851 -5.688,-7.15234 0,-4.4844 2.086,-7.24611 5.497,-7.24611 1.414,0 2.734,0.41016 3.453,1.10547 0.648,0.59766 1.007,1.32034 1.273,2.63674 z"
           transform="translate(186.252,5.61914)"
           id="path2535" /><path
           style="fill:#f9f9f9;fill-rule:evenodd;stroke:none;stroke-width:11.551"
           d="m 11.227,9.5273 v 7.9649 h 2.234 V 0 H 11.227 V 7.5586 H 2.23 V 0 H 0 V 17.4922 H 2.254 V 9.5273 Z"
           transform="translate(204.419,5.9082)"
           id="path2537" /><path
           style="fill:#f9f9f9;fill-rule:evenodd;stroke:none;stroke-width:11.551"
           d="m 3.406,6.9258 h 0.2 L 4.273,6.9063 c 1.75,0 2.649,0.793 2.649,2.3281 0,1.6016 -0.988,2.5586 -2.649,2.5586 -1.73,0 -2.578,-0.8672 -2.687,-2.7227 H 0 c 0.07,1.0274 0.25,1.6954 0.559,2.2735 0.648,1.2265 1.91,1.8555 3.66,1.8555 2.633,0 4.328,-1.5665 4.328,-3.9844 C 8.547,7.5899 7.914,6.6914 6.383,6.168 7.574,5.6797 8.168,4.7969 8.168,3.5157 8.168,1.3164 6.707,0 4.273,0 1.695,0 0.324,1.4063 0.27,4.1289 H 1.856 C 1.875,3.3555 1.945,2.9219 2.145,2.5235 2.504,1.8203 3.301,1.3868 4.289,1.3868 c 1.41,0 2.258,0.8125 2.258,2.1835 0,0.9024 -0.328,1.4415 -1.031,1.7305 -0.43,0.1797 -0.993,0.2539 -2.11,0.2695 z"
           transform="translate(220.332,15.1152)"
           id="path2539" /><path
           style="fill:#f9f9f9;fill-rule:nonzero;stroke:none;stroke-width:11.551"
           d="m 22.85,0 1,1.3994 L 0.2,18.5498 0,16.5996 Z"
           transform="translate(161.6,19.6504)"
           id="path2541" /><path
           style="fill:#f9f9f9;fill-rule:nonzero;stroke:none;stroke-width:11.551"
           d="m 39.4996,0 -0.2,1.95 L 0,19.45 6.4996,14.7 Z"
           transform="translate(94.4004,153.05)"
           id="path2543" /><path
           style="fill:#f9f9f9;fill-rule:evenodd;stroke:none;stroke-width:11.551"
           d="M 8.422,0 C 3.41,0 0,3.695 0,9.168 c 0,5.492 3.383,9.164 8.449,9.164 2.133,0 4.004,-0.649 5.422,-1.848 1.894,-1.606 3.023,-4.316 3.023,-7.172 C 16.894,3.671 13.558,0 8.422,0 Z m 0,1.968 c 3.793,0 6.238,2.856 6.238,7.293 0,4.227 -2.52,7.106 -6.211,7.106 -3.746,0 -6.215,-2.879 -6.215,-7.199 0,-4.321 2.469,-7.2 6.188,-7.2 z"
           transform="translate(157.51,169.019)"
           id="path2545" /><path
           style="fill:#f9f9f9;fill-rule:nonzero;stroke:none;stroke-width:11.551"
           d="m 24.35,17.5 -1,1.4 L 0,1.95 0.2,0 Z"
           transform="translate(133.7,153.05)"
           id="path2547" /><path
           style="fill:#f9f9f9;fill-rule:evenodd;stroke:none;stroke-width:11.551"
           d="M 8.421,0 C 3.41,0 0,3.695 0,9.168 c 0,5.492 3.382,9.164 8.449,9.164 2.133,0 4.004,-0.649 5.422,-1.848 1.894,-1.605 3.023,-4.316 3.023,-7.172 C 16.894,3.672 13.558,0 8.421,0 Z m 0,1.969 c 3.793,0 6.239,2.855 6.239,7.292 0,4.227 -2.52,7.106 -6.211,7.106 -3.746,0 -6.215,-2.879 -6.215,-7.199 0,-4.321 2.469,-7.199 6.187,-7.199 z"
           transform="translate(129.561,106.219)"
           id="path2549" /><path
           style="fill:#f9f9f9;fill-rule:nonzero;stroke:none;stroke-width:11.551"
           d="M 3.05,0 4.75,0.2 1.7,29.5 0,29.35 Z"
           transform="translate(129.85,126)"
           id="path2551" /><path
           style="fill:#f9f9f9;fill-rule:nonzero;stroke:none;stroke-width:11.551"
           d="M 3.1,0 4.8,0.15 1.7,29.5 0,29.3 Z"
           transform="translate(135.75,126.65)"
           id="path2553" /><path
           style="fill:#f9f9f9;fill-rule:evenodd;stroke:none;stroke-width:11.551"
           d="M 14.731,5.711 C 14.036,1.875 11.828,0 7.989,0 5.637,0 3.743,0.746 2.446,2.184 0.864,3.914 0,6.41 0,9.238 c 0,2.879 0.887,5.352 2.52,7.055 1.367,1.391 3.094,2.039 5.375,2.039 4.269,0 6.668,-2.301 7.195,-6.933 h -2.301 c -0.191,1.199 -0.433,2.015 -0.793,2.711 -0.718,1.441 -2.207,2.257 -4.078,2.257 -3.48,0 -5.687,-2.785 -5.687,-7.152 0,-4.484 2.086,-7.246 5.496,-7.246 1.414,0 2.734,0.41 3.453,1.105 0.648,0.598 1.008,1.321 1.273,2.637 z"
           transform="translate(194.652,152.869)"
           id="path2555" /><path
           style="fill:#f9f9f9;fill-rule:evenodd;stroke:none;stroke-width:11.551"
           d="m 11.227,9.528 v 7.964 h 2.234 V 0 H 11.227 V 7.559 H 2.231 V 0 H 0 V 17.492 H 2.254 V 9.528 Z"
           transform="translate(212.819,153.158)"
           id="path2557" /><path
           style="fill:#f9f9f9;fill-rule:evenodd;stroke:none;stroke-width:11.551"
           d="m 3.407,6.926 h 0.199 l 0.668,-0.02 c 1.75,0 2.648,0.793 2.648,2.329 0,1.601 -0.988,2.558 -2.648,2.558 -1.731,0 -2.578,-0.867 -2.688,-2.722 H 0 c 0.071,1.027 0.25,1.695 0.559,2.273 0.648,1.227 1.91,1.855 3.66,1.855 2.633,0 4.328,-1.566 4.328,-3.984 C 8.547,7.59 7.914,6.692 6.383,6.168 7.575,5.68 8.168,4.797 8.168,3.516 8.168,1.317 6.707,0 4.274,0 1.696,0 0.325,1.406 0.27,4.129 H 1.856 C 1.875,3.356 1.946,2.922 2.145,2.524 2.504,1.821 3.301,1.387 4.289,1.387 c 1.411,0 2.258,0.812 2.258,2.184 0,0.902 -0.328,1.441 -1.031,1.73 -0.43,0.18 -0.992,0.254 -2.109,0.27 z"
           transform="translate(228.732,162.365)"
           id="path2559" /><path
           style="fill:#f9f9f9;fill-rule:nonzero;stroke:none;stroke-width:11.551"
           d="M 17.2,0 17.9,1.55 0.7,9.2 0,7.65 Z"
           transform="translate(175.1,164.7)"
           id="path2561" /></g><g
         style="overflow:visible;fill:#f9f9f9;stroke-width:8.21831"
         id="g2705"
         transform="matrix(0.11945484,0,0,0.12394592,22.176947,77.52977)"><path
           d="m 70.007075,49.2794 v -0.95 l 0.8075,-0.475 31.872505,18.3825 v 0.95 l -0.8075,0.475 z"
           id="polygon3"
           style="fill:#f9f9f9;stroke-width:8.21831" /><path
           d="m 103.49458,67.6619 -0.8075,-0.475 v -0.95 l 32.6325,-18.81 v 1.8525 z"
           id="polygon5"
           style="fill:#f9f9f9;stroke-width:8.21831" /><g
           id="g7"
           transform="matrix(0.95,0,0,0.95,4.908325,3.0296)"
           style="fill:#f9f9f9;stroke-width:8.21831">
	<path
   d="m 163.431,68.619 c 0,-2.852 0.766,-5.085 2.298,-6.699 1.532,-1.613 3.51,-2.42 5.933,-2.42 1.587,0 3.018,0.379 4.291,1.137 1.273,0.758 2.245,1.815 2.914,3.171 0.668,1.356 1.002,2.894 1.002,4.612 0,1.742 -0.352,3.302 -1.055,4.677 -0.704,1.376 -1.701,2.417 -2.99,3.124 -1.29,0.707 -2.682,1.061 -4.174,1.061 -1.618,0 -3.064,-0.391 -4.338,-1.172 -1.274,-0.781 -2.239,-1.848 -2.896,-3.2 -0.657,-1.352 -0.985,-2.783 -0.985,-4.291 z m 2.344,0.029 c 0,2.07 0.557,3.701 1.671,4.893 1.114,1.192 2.512,1.787 4.192,1.787 1.712,0 3.121,-0.602 4.228,-1.805 1.107,-1.203 1.659,-2.91 1.659,-5.121 0,-1.398 -0.236,-2.619 -0.709,-3.662 -0.474,-1.043 -1.166,-1.852 -2.076,-2.426 -0.91,-0.574 -1.933,-0.861 -3.066,-0.861 -1.61,0 -2.996,0.553 -4.157,1.658 -1.161,1.105 -1.742,2.952 -1.742,5.537 z"
   id="path9"
   style="fill:#f9f9f9;stroke-width:8.21831" />
	<path
   d="M 182.88,76.984 V 59.797 h 2.281 v 7.063 h 8.891 v -7.063 h 2.281 v 17.188 h -2.281 v -8.094 h -8.891 v 8.094 h -2.281 z"
   id="path11"
   style="fill:#f9f9f9;stroke-width:8.21831" />
</g><path
           d="m 135.31958,49.2794 v -1.8525 l 24.4625,14.1075 -0.8075,1.425 z"
           id="polygon13"
           style="fill:#f9f9f9;stroke-width:8.21831" /><g
           id="g15"
           transform="matrix(0.95,0,0,0.95,4.908325,3.0296)"
           style="fill:#f9f9f9;stroke-width:8.21831">
	<path
   d="m 129.031,9.119 c 0,-2.852 0.766,-5.085 2.299,-6.699 1.531,-1.613 3.51,-2.42 5.932,-2.42 1.588,0 3.018,0.379 4.291,1.137 1.274,0.758 2.246,1.815 2.914,3.171 0.668,1.356 1.002,2.894 1.002,4.612 0,1.742 -0.352,3.302 -1.055,4.677 -0.703,1.376 -1.7,2.417 -2.99,3.124 -1.289,0.707 -2.681,1.061 -4.174,1.061 -1.617,0 -3.064,-0.391 -4.338,-1.172 -1.274,-0.781 -2.238,-1.848 -2.896,-3.2 -0.657,-1.352 -0.985,-2.783 -0.985,-4.291 z m 2.344,0.029 c 0,2.07 0.557,3.701 1.672,4.893 1.113,1.191 2.512,1.787 4.191,1.787 1.713,0 3.121,-0.602 4.229,-1.805 1.105,-1.203 1.658,-2.91 1.658,-5.121 0,-1.398 -0.236,-2.619 -0.709,-3.662 -0.473,-1.043 -1.165,-1.852 -2.076,-2.426 -0.91,-0.574 -1.932,-0.861 -3.066,-0.861 -1.609,0 -2.996,0.553 -4.156,1.658 -1.163,1.106 -1.743,2.952 -1.743,5.537 z"
   id="path17"
   style="fill:#f9f9f9;stroke-width:8.21831" />
</g><path
           d="m 131.66208,22.0619 h 1.61405 v 27.929051 h -1.61405 z"
           id="rect19"
           style="fill:#f9f9f9;stroke-width:8.21831" /><path
           d="m 137.36208,22.0619 h 1.61405 v 27.929051 h -1.61405 z"
           id="rect21"
           style="fill:#f9f9f9;stroke-width:8.21831" /><g
           id="g23"
           transform="matrix(0.95,0,0,0.95,4.908325,3.0296)"
           style="fill:#f9f9f9;stroke-width:8.21831">
	<path
   d="M 96.103,116.684 V 99.496 h 2.34 l 9.004,13.488 V 99.496 h 2.188 v 17.188 h -2.34 l -9.004,-13.489 v 13.489 z"
   id="path25"
   style="fill:#f9f9f9;stroke-width:8.21831" />
	<path
   d="M 113.544,116.684 V 99.496 h 2.281 v 7.063 h 8.891 v -7.063 h 2.281 v 17.188 h -2.281 v -8.094 h -8.891 v 8.094 z"
   id="path27"
   style="fill:#f9f9f9;stroke-width:8.21831" />
</g><g
           id="g29"
           transform="matrix(0.95,0,0,0.95,4.908325,3.0296)"
           style="fill:#f9f9f9;stroke-width:8.21831">
	<path
   d="m 136.779,119.668 v 1.516 h -8.531 c -0.012,-0.381 0.051,-0.747 0.186,-1.1 0.219,-0.58 0.568,-1.15 1.049,-1.712 0.481,-0.562 1.17,-1.211 2.07,-1.948 1.395,-1.152 2.342,-2.063 2.84,-2.733 0.498,-0.67 0.746,-1.304 0.746,-1.903 0,-0.626 -0.225,-1.154 -0.675,-1.584 -0.45,-0.43 -1.036,-0.645 -1.761,-0.645 -0.766,0 -1.377,0.229 -1.836,0.688 -0.459,0.458 -0.691,1.094 -0.697,1.905 l -1.625,-0.172 c 0.111,-1.215 0.531,-2.142 1.26,-2.779 0.729,-0.637 1.707,-0.955 2.934,-0.955 1.239,0 2.221,0.343 2.942,1.029 0.722,0.686 1.083,1.535 1.083,2.55 0,0.517 -0.105,1.023 -0.316,1.521 -0.212,0.498 -0.563,1.022 -1.053,1.574 -0.492,0.551 -1.305,1.308 -2.441,2.269 -0.95,0.797 -1.561,1.338 -1.832,1.621 -0.271,0.285 -0.496,0.57 -0.674,0.857 h 6.331 z"
   id="path31"
   style="fill:#f9f9f9;stroke-width:8.21831" />
</g><path
           d="m 103.49458,95.3544 h -1.615 V 67.6619 l 0.8075,-0.475 0.8075,0.475 z"
           id="polygon33"
           style="fill:#f9f9f9;stroke-width:8.21831" /><g
           id="g35"
           transform="matrix(0.95,0,0,0.95,4.908325,3.0296)"
           style="fill:#f9f9f9;stroke-width:8.21831">
	<path
   d="M 0,76.984 V 59.797 h 2.281 v 7.063 h 8.891 v -7.063 h 2.281 V 76.985 H 11.172 V 68.891 H 2.281 v 8.094 H 0 Z"
   id="path37"
   style="fill:#f9f9f9;stroke-width:8.21831" />
</g><g
           id="g39"
           transform="matrix(0.95,0,0,0.95,4.908325,3.0296)"
           style="fill:#f9f9f9;stroke-width:8.21831">
	<path
   d="m 14.461,78.078 1.578,-0.219 c 0.183,0.896 0.492,1.543 0.928,1.938 0.437,0.396 0.972,0.594 1.607,0.594 0.753,0 1.386,-0.258 1.899,-0.773 0.513,-0.515 0.769,-1.153 0.769,-1.914 0,-0.727 -0.238,-1.325 -0.716,-1.797 -0.477,-0.471 -1.083,-0.707 -1.819,-0.707 -0.301,0 -0.675,0.059 -1.122,0.176 l 0.177,-1.391 c 0.106,0.012 0.191,0.018 0.256,0.018 0.674,0 1.281,-0.176 1.821,-0.526 0.54,-0.351 0.81,-0.892 0.81,-1.623 0,-0.579 -0.197,-1.059 -0.591,-1.438 -0.394,-0.38 -0.902,-0.57 -1.525,-0.57 -0.617,0 -1.132,0.194 -1.543,0.582 -0.412,0.389 -0.676,0.971 -0.793,1.746 l -1.578,-0.281 c 0.193,-1.062 0.634,-1.885 1.32,-2.469 0.686,-0.583 1.54,-0.875 2.561,-0.875 0.704,0 1.353,0.15 1.945,0.452 0.592,0.301 1.045,0.712 1.36,1.232 0.313,0.521 0.471,1.073 0.471,1.658 0,0.556 -0.149,1.062 -0.448,1.518 -0.299,0.456 -0.741,0.818 -1.327,1.088 0.762,0.176 1.354,0.54 1.779,1.095 0.424,0.553 0.637,1.246 0.637,2.078 0,1.125 -0.411,2.079 -1.233,2.861 -0.822,0.783 -1.861,1.174 -3.117,1.174 -1.133,0 -2.074,-0.336 -2.822,-1.01 -0.751,-0.674 -1.178,-1.547 -1.284,-2.617 z"
   id="path41"
   style="fill:#f9f9f9;stroke-width:8.21831" />
</g><g
           id="g43"
           transform="matrix(0.95,0,0,0.95,4.908325,3.0296)"
           style="fill:#f9f9f9;stroke-width:8.21831">
	<path
   d="m 37.039,70.957 2.281,0.574 c -0.476,1.87 -1.333,3.296 -2.569,4.277 -1.237,0.982 -2.75,1.473 -4.537,1.473 -1.85,0 -3.354,-0.377 -4.513,-1.132 -1.159,-0.755 -2.041,-1.847 -2.646,-3.278 -0.605,-1.431 -0.907,-2.967 -0.907,-4.609 0,-1.791 0.341,-3.353 1.024,-4.686 0.683,-1.334 1.654,-2.346 2.915,-3.038 1.26,-0.692 2.646,-1.038 4.16,-1.038 1.717,0 3.16,0.438 4.33,1.314 1.171,0.877 1.986,2.109 2.446,3.697 l -2.234,0.527 c -0.398,-1.25 -0.975,-2.16 -1.731,-2.73 -0.757,-0.57 -1.709,-0.855 -2.855,-0.855 -1.318,0 -2.42,0.316 -3.306,0.949 -0.885,0.633 -1.507,1.482 -1.866,2.549 -0.359,1.067 -0.538,2.166 -0.538,3.299 0,1.461 0.212,2.736 0.637,3.826 0.425,1.09 1.085,1.904 1.982,2.443 0.897,0.539 1.867,0.809 2.912,0.809 1.271,0 2.346,-0.367 3.227,-1.102 0.881,-0.735 1.476,-1.824 1.788,-3.269 z"
   id="path45"
   style="fill:#f9f9f9;stroke-width:8.21831" />
</g><path
           d="m 46.352075,62.9594 -0.8075,-1.425 23.655,-13.68 0.8075,0.475 v 0.95 z"
           id="polygon47"
           style="fill:#f9f9f9;stroke-width:8.21831" /><g
           id="g49"
           transform="matrix(0.95,0,0,0.95,4.908325,3.0296)"
           style="fill:#f9f9f9;stroke-width:8.21831">
	<path
   d="m 74.019,11.457 2.281,0.574 c -0.476,1.87 -1.333,3.296 -2.569,4.277 -1.237,0.982 -2.75,1.473 -4.537,1.473 -1.85,0 -3.354,-0.377 -4.513,-1.132 C 63.522,15.894 62.64,14.802 62.035,13.371 61.43,11.94 61.128,10.404 61.128,8.762 61.128,6.971 61.469,5.409 62.152,4.076 62.835,2.742 63.806,1.73 65.067,1.038 66.326,0.346 67.713,0 69.227,0 c 1.717,0 3.16,0.438 4.33,1.314 1.171,0.877 1.986,2.109 2.446,3.697 l -2.234,0.527 c -0.398,-1.25 -0.975,-2.16 -1.731,-2.73 -0.757,-0.57 -1.709,-0.855 -2.855,-0.855 -1.318,0 -2.42,0.316 -3.306,0.949 -0.885,0.633 -1.507,1.482 -1.866,2.549 -0.359,1.067 -0.538,2.166 -0.538,3.299 0,1.461 0.212,2.736 0.637,3.826 0.425,1.09 1.085,1.904 1.982,2.443 0.897,0.539 1.867,0.809 2.912,0.809 1.271,0 2.346,-0.367 3.227,-1.102 0.881,-0.735 1.476,-1.824 1.788,-3.269 z"
   id="path51"
   style="fill:#f9f9f9;stroke-width:8.21831" />
	<path
   d="M 79.194,17.484 V 0.297 h 2.281 V 7.36 h 8.891 V 0.297 h 2.281 V 17.485 H 90.366 V 9.391 h -8.891 v 8.094 h -2.281 z"
   id="path53"
   style="fill:#f9f9f9;stroke-width:8.21831" />
</g><g
           id="g55"
           transform="matrix(0.95,0,0,0.95,4.908325,3.0296)"
           style="fill:#f9f9f9;stroke-width:8.21831">
	<path
   d="m 93.245,18.578 1.578,-0.219 c 0.183,0.896 0.492,1.543 0.928,1.938 0.437,0.396 0.972,0.594 1.607,0.594 0.753,0 1.386,-0.258 1.899,-0.773 0.513,-0.515 0.769,-1.153 0.769,-1.914 0,-0.727 -0.238,-1.325 -0.716,-1.797 -0.477,-0.471 -1.083,-0.707 -1.819,-0.707 -0.301,0 -0.675,0.059 -1.122,0.176 l 0.177,-1.391 c 0.106,0.012 0.191,0.018 0.256,0.018 0.674,0 1.281,-0.176 1.821,-0.526 0.54,-0.351 0.81,-0.892 0.81,-1.623 0,-0.579 -0.197,-1.059 -0.591,-1.438 -0.394,-0.38 -0.902,-0.57 -1.525,-0.57 -0.617,0 -1.132,0.194 -1.543,0.582 -0.412,0.389 -0.676,0.971 -0.793,1.746 l -1.578,-0.281 c 0.193,-1.062 0.634,-1.885 1.32,-2.469 0.686,-0.583 1.54,-0.875 2.561,-0.875 0.704,0 1.353,0.15 1.945,0.452 0.592,0.301 1.045,0.712 1.36,1.232 0.313,0.521 0.471,1.073 0.471,1.658 0,0.556 -0.149,1.062 -0.448,1.518 -0.299,0.456 -0.741,0.818 -1.327,1.088 0.762,0.176 1.354,0.54 1.779,1.095 0.424,0.553 0.637,1.246 0.637,2.078 0,1.125 -0.411,2.079 -1.233,2.861 -0.822,0.783 -1.861,1.174 -3.117,1.174 -1.133,0 -2.074,-0.336 -2.822,-1.01 -0.752,-0.674 -1.179,-1.547 -1.284,-2.617 z"
   id="path57"
   style="fill:#f9f9f9;stroke-width:8.21831" />
</g><path
           d="m 69.199575,22.0144 h 1.615 v 25.84 l -0.8075,0.475 -0.8075,-0.475 z"
           id="polygon59"
           style="fill:#f9f9f9;stroke-width:8.21831" /></g></g></g><g
     style="display:inline"
     inkscape:label="Title"
     id="layer1"
     inkscape:groupmode="layer"><text
   y="62.65276"
   x="33.067711"
   id="text36"
   style="font-style:normal;font-variant:normal;font-weight:normal;font-stretch:normal;line-height:0%;font-family:Aller;-inkscape-font-specification:Aller;writing-mode:lr-tb;fill:#ffffff;fill-opacity:1;fill-rule:nonzero;stroke:none"
   transform="scale(1.0000201,0.99997991)"><tspan
     style="font-style:normal;font-variant:normal;font-weight:normal;font-stretch:normal;font-size:21.7984px;line-height:1.25;font-family:Aller;-inkscape-font-specification:Aller"
     y="62.65276"
     x="33.067711"
     id="tspan38"
     sodipodi:role="line">RHermes</tspan></text>
</g></svg>
